<svg id="Group_58141" data-name="Group 58141" xmlns="http://www.w3.org/2000/svg" xmlns:xlink="http://www.w3.org/1999/xlink" width="33.118" height="34.66" viewBox="0 0 33.118 34.66">
  <defs>
    <clipPath id="clip-path">
      <path id="Path_6" data-name="Path 6" d="M64.661,69.793a2.835,2.835,0,0,1-.543,1.05,4.638,4.638,0,0,1-2.157,1.278.623.623,0,0,0-.264.136.653.653,0,0,0-.121.421,2.524,2.524,0,0,1-.493,1.378,1.569,1.569,0,0,1-1.278.621,3.018,3.018,0,0,1-.657-.15,22.656,22.656,0,0,0-4.642-.757,8.749,8.749,0,0,1-2.785-.521c-.786-.336-1.771-1.143-1.7-2.085a13.419,13.419,0,0,1,.321-3.335A4.833,4.833,0,0,1,50.72,67a16.557,16.557,0,1,0,13.941,2.793Zm-9.9,21.769a8.5,8.5,0,1,1,8.5-8.5A8.5,8.5,0,0,1,54.762,91.561Z" transform="translate(-38.2 -67)"/>
    </clipPath>
    <clipPath id="clip-path-16">
      <path id="Path_21" data-name="Path 21" d="M54.855,60.1A16.555,16.555,0,1,0,71.411,76.655,16.557,16.557,0,0,0,54.855,60.1Zm0,25.054a8.5,8.5,0,1,1,8.5-8.5A8.5,8.5,0,0,1,54.855,85.154Z" transform="translate(-38.3 -60.1)"/>
    </clipPath>
  </defs>
  <g id="Group_56" data-name="Group 56" transform="translate(0)">
    <g id="Group_55" data-name="Group 55" transform="translate(0 2.043)">
      <g id="Group_24" data-name="Group 24" transform="translate(0 0)">
        <path id="XMLID_00000167366634541528617810000014012692159801615283_" d="M64.661,69.793a2.835,2.835,0,0,1-.543,1.05,4.638,4.638,0,0,1-2.157,1.278.623.623,0,0,0-.264.136.653.653,0,0,0-.121.421,2.524,2.524,0,0,1-.493,1.378,1.569,1.569,0,0,1-1.278.621,3.018,3.018,0,0,1-.657-.15,22.656,22.656,0,0,0-4.642-.757,8.749,8.749,0,0,1-2.785-.521c-.786-.336-1.771-1.143-1.7-2.085a13.419,13.419,0,0,1,.321-3.335A4.833,4.833,0,0,1,50.72,67a16.557,16.557,0,1,0,13.941,2.793Zm-9.9,21.769a8.5,8.5,0,1,1,8.5-8.5A8.5,8.5,0,0,1,54.762,91.561Z" transform="translate(-38.2 -67)" fill="#fec401"/>
      </g>
      <g id="Group_26" data-name="Group 26" transform="translate(0)">
        <g id="Group_25" data-name="Group 25" clip-path="url(#clip-path)">
          <ellipse id="Ellipse_6" data-name="Ellipse 6" cx="6.599" cy="6.599" rx="6.599" ry="6.599" transform="translate(16.391 19.255)" fill="#01a2fd"/>
        </g>
      </g>
      <g id="Group_28" data-name="Group 28" transform="translate(0 0)">
        <g id="Group_27" data-name="Group 27" clip-path="url(#clip-path)">
          <ellipse id="Ellipse_7" data-name="Ellipse 7" cx="2.7" cy="2.7" rx="2.7" ry="2.7" transform="translate(1.386 11.192)" fill="#f97707"/>
        </g>
      </g>
      <g id="Group_30" data-name="Group 30" transform="translate(0)">
        <g id="Group_29" data-name="Group 29" clip-path="url(#clip-path)">
          <ellipse id="Ellipse_8" data-name="Ellipse 8" cx="4.899" cy="4.899" rx="4.899" ry="4.899" transform="translate(4.121 15.72)" fill="#01a2fd"/>
        </g>
      </g>
      <g id="Group_32" data-name="Group 32" transform="translate(0 0)">
        <g id="Group_31" data-name="Group 31" transform="translate(0)" clip-path="url(#clip-path)">
          <ellipse id="Ellipse_9" data-name="Ellipse 9" cx="4.899" cy="4.899" rx="4.899" ry="4.899" transform="translate(-2.728 5.128)" fill="#014daf"/>
        </g>
      </g>
      <g id="Group_34" data-name="Group 34" transform="translate(0 0)">
        <g id="Group_33" data-name="Group 33" clip-path="url(#clip-path)">
          <ellipse id="Ellipse_10" data-name="Ellipse 10" cx="4" cy="4" rx="4" ry="4" transform="translate(7.413 2.771)" fill="#f97707"/>
        </g>
      </g>
      <g id="Group_36" data-name="Group 36" transform="translate(0 0)">
        <g id="Group_35" data-name="Group 35" transform="translate(0 0)" clip-path="url(#clip-path)">
          <ellipse id="Ellipse_11" data-name="Ellipse 11" cx="3.964" cy="3.964" rx="3.964" ry="3.964" transform="translate(6.114 -2.685)" fill="#01a2fd"/>
        </g>
      </g>
      <g id="Group_38" data-name="Group 38" transform="translate(0 0)">
        <g id="Group_37" data-name="Group 37" clip-path="url(#clip-path)">
          <ellipse id="Ellipse_12" data-name="Ellipse 12" cx="4" cy="4" rx="4" ry="4" transform="translate(25.347 5.107)" fill="#f97707"/>
        </g>
      </g>
      <g id="Group_40" data-name="Group 40">
        <g id="Group_39" data-name="Group 39" clip-path="url(#clip-path)">
          <ellipse id="Ellipse_13" data-name="Ellipse 13" cx="2.65" cy="2.65" rx="2.65" ry="2.65" transform="translate(25.89 10.313)" fill="#01a2fd"/>
        </g>
      </g>
      <g id="Group_42" data-name="Group 42" transform="translate(0 0)">
        <g id="Group_41" data-name="Group 41" clip-path="url(#clip-path)">
          <ellipse id="Ellipse_14" data-name="Ellipse 14" cx="2.65" cy="2.65" rx="2.65" ry="2.65" transform="translate(18.848 4.1)" fill="#014daf"/>
        </g>
      </g>
      <g id="Group_44" data-name="Group 44" transform="translate(0 0)">
        <g id="Group_43" data-name="Group 43" clip-path="url(#clip-path)">
          <ellipse id="Ellipse_15" data-name="Ellipse 15" cx="1.893" cy="1.893" rx="1.893" ry="1.893" transform="translate(14.984 -0.214)" fill="#014daf"/>
        </g>
      </g>
      <g id="Group_46" data-name="Group 46" transform="translate(0)">
        <g id="Group_45" data-name="Group 45" clip-path="url(#clip-path)">
          <ellipse id="Ellipse_16" data-name="Ellipse 16" cx="4" cy="4" rx="4" ry="4" transform="translate(6.878 24.562)" fill="#f97707"/>
        </g>
      </g>
      <g id="Group_48" data-name="Group 48" transform="translate(0)">
        <g id="Group_47" data-name="Group 47" clip-path="url(#clip-path)">
          <ellipse id="Ellipse_17" data-name="Ellipse 17" cx="2.957" cy="2.957" rx="2.957" ry="2.957" transform="translate(-1.178 18.305)" fill="#014daf"/>
        </g>
      </g>
      <g id="Group_50" data-name="Group 50" transform="translate(0)">
        <g id="Group_49" data-name="Group 49" clip-path="url(#clip-path)">
          <ellipse id="Ellipse_18" data-name="Ellipse 18" cx="5.305" cy="5.482" rx="5.305" ry="5.482" transform="translate(12.025 24.483)" fill="#014daf"/>
        </g>
      </g>
      <g id="Group_52" data-name="Group 52">
        <g id="Group_51" data-name="Group 51" clip-path="url(#clip-path)">
          <ellipse id="Ellipse_19" data-name="Ellipse 19" cx="2.7" cy="2.7" rx="2.7" ry="2.7" transform="translate(25.054 18.876)" fill="#014daf"/>
        </g>
      </g>
      <g id="Group_54" data-name="Group 54">
        <g id="Group_53" data-name="Group 53" clip-path="url(#clip-path)">
          <ellipse id="Ellipse_20" data-name="Ellipse 20" cx="2.7" cy="2.7" rx="2.7" ry="2.7" transform="translate(31.404 14.72)" fill="#f97707"/>
        </g>
      </g>
    </g>
    <ellipse id="Ellipse_21" data-name="Ellipse 21" cx="1.45" cy="1.45" rx="1.45" ry="1.45" transform="translate(20.269 1.164)" fill="#f97707"/>
    <ellipse id="Ellipse_22" data-name="Ellipse 22" cx="0.864" cy="0.864" rx="0.864" ry="0.864" transform="translate(17.577)" fill="#fec401"/>
    <ellipse id="Ellipse_23" data-name="Ellipse 23" cx="1.45" cy="1.45" rx="1.45" ry="1.45" transform="translate(23.862 4.292)" fill="#014daf"/>
  </g>
  <g id="Group_69" data-name="Group 69" transform="translate(0.007 1.55)">
    <g id="Group_58" data-name="Group 58" transform="translate(0)">
      <g id="Group_57" data-name="Group 57" clip-path="url(#clip-path-16)">
        <ellipse id="Ellipse_24" data-name="Ellipse 24" cx="2.328" cy="2.328" rx="2.328" ry="2.328" transform="translate(14.884 5.735)" fill="#fec401"/>
      </g>
    </g>
    <g id="Group_60" data-name="Group 60" transform="translate(0)">
      <g id="Group_59" data-name="Group 59" transform="translate(0)" clip-path="url(#clip-path-16)">
        <ellipse id="Ellipse_25" data-name="Ellipse 25" cx="3.007" cy="3.007" rx="3.007" ry="3.007" transform="translate(18.948 4.935)" fill="#01a2fd"/>
      </g>
    </g>
    <g id="Group_62" data-name="Group 62" transform="translate(0)">
      <g id="Group_61" data-name="Group 61" transform="translate(0)" clip-path="url(#clip-path-16)">
        <ellipse id="Ellipse_26" data-name="Ellipse 26" cx="1.45" cy="1.45" rx="1.45" ry="1.45" transform="translate(19.305 3.607)" fill="#fec401"/>
      </g>
    </g>
    <g id="Group_64" data-name="Group 64" transform="translate(0)">
      <g id="Group_63" data-name="Group 63" clip-path="url(#clip-path-16)">
        <ellipse id="Ellipse_27" data-name="Ellipse 27" cx="1.864" cy="1.864" rx="1.864" ry="1.864" transform="translate(15.177 1.064)" fill="#014daf"/>
      </g>
    </g>
    <g id="Group_66" data-name="Group 66" transform="translate(0)">
      <g id="Group_65" data-name="Group 65" clip-path="url(#clip-path-16)">
        <ellipse id="Ellipse_28" data-name="Ellipse 28" cx="4" cy="4" rx="4" ry="4" transform="translate(7.371 3.335)" fill="#f97707"/>
      </g>
    </g>
    <g id="Group_68" data-name="Group 68" transform="translate(0)">
      <g id="Group_67" data-name="Group 67" clip-path="url(#clip-path-16)">
        <ellipse id="Ellipse_29" data-name="Ellipse 29" cx="3.964" cy="3.964" rx="3.964" ry="3.964" transform="translate(6.078 -2.121)" fill="#01a2fd"/>
      </g>
    </g>
  </g>
</svg>
