<svg xmlns="http://www.w3.org/2000/svg" xmlns:xlink="http://www.w3.org/1999/xlink" width="93.002" height="83.608" viewBox="0 0 93.002 83.608">
  <defs>
    <filter id="Union_37" x="0" y="23.699" width="93.002" height="59.91" filterUnits="userSpaceOnUse">
      <feOffset dx="5" dy="3" input="SourceAlpha"/>
      <feGaussianBlur stdDeviation="2" result="blur"/>
      <feFlood flood-opacity="0.059"/>
      <feComposite operator="in" in2="blur"/>
      <feComposite in="SourceGraphic"/>
    </filter>
  </defs>
  <g id="content_copy_FILL0_wght300_GRAD0_opsz24" transform="translate(1 0.25)">
    <path id="content_copy_FILL0_wght300_GRAD0_opsz24-2" data-name="content_copy_FILL0_wght300_GRAD0_opsz24" d="M154.728-846.637a1.555,1.555,0,0,1-1.143-.468,1.555,1.555,0,0,1-.468-1.143V-858.39a1.554,1.554,0,0,1,.468-1.143,1.554,1.554,0,0,1,1.143-.468H162.2a1.554,1.554,0,0,1,1.143.468,1.555,1.555,0,0,1,.468,1.143v10.142a1.555,1.555,0,0,1-.468,1.143,1.555,1.555,0,0,1-1.143.468Zm0-1.336H162.2a.261.261,0,0,0,.188-.086.261.261,0,0,0,.086-.188V-858.39a.261.261,0,0,0-.086-.188.261.261,0,0,0-.188-.086h-7.469a.261.261,0,0,0-.188.086.261.261,0,0,0-.086.188v10.142a.261.261,0,0,0,.086.188A.261.261,0,0,0,154.728-847.974Zm-3.118,4.454a1.555,1.555,0,0,1-1.143-.468A1.555,1.555,0,0,1,150-845.13v-11.478h1.336v11.478a.261.261,0,0,0,.086.188.261.261,0,0,0,.188.086h8.806v1.336Zm2.844-4.454v0Z" transform="translate(-92.255 860)" fill="#1447b2" stroke="#1447b2" stroke-width="0.5"/>
    <g id="Group_58382" data-name="Group 58382" transform="translate(83.745 99)">
      <g transform="matrix(1, 0, 0, 1, -84.75, -99.25)" filter="url(#Union_37)">
        <g id="Union_37-2" data-name="Union 37" transform="translate(-9706.5 -7154.66)" fill="#fff">
          <path d="M 9782.4990234375 7228.7666015625 L 9713.5009765625 7228.7666015625 C 9710.466796875 7228.7666015625 9707.9990234375 7226.298828125 9707.9990234375 7223.26513671875 L 9707.9990234375 7195.2646484375 C 9707.9990234375 7192.232421875 9710.466796875 7189.765625 9713.5009765625 7189.765625 L 9765.1337890625 7189.765625 L 9765.373046875 7189.765625 L 9765.5224609375 7189.57958984375 L 9771.609375 7182.04296875 C 9771.705078125 7181.9248046875 9771.84765625 7181.85693359375 9771.9990234375 7181.85693359375 C 9772.1513671875 7181.85693359375 9772.2939453125 7181.9248046875 9772.3896484375 7182.04296875 L 9778.4765625 7189.57958984375 L 9778.6259765625 7189.765625 L 9778.865234375 7189.765625 L 9782.4990234375 7189.765625 C 9785.533203125 7189.765625 9788.0009765625 7192.232421875 9788.0009765625 7195.2646484375 L 9788.0009765625 7223.26513671875 C 9788.0009765625 7226.298828125 9785.533203125 7228.7666015625 9782.4990234375 7228.7666015625 Z" stroke="none"/>
          <path d="M 9782.4990234375 7228.2666015625 C 9785.2568359375 7228.2666015625 9787.5009765625 7226.02294921875 9787.5009765625 7223.26513671875 L 9787.5009765625 7195.2646484375 C 9787.5009765625 7192.50830078125 9785.2568359375 7190.265625 9782.4990234375 7190.265625 L 9778.3876953125 7190.265625 L 9778.0869140625 7189.89404296875 L 9771.9990234375 7182.357421875 L 9765.611328125 7190.265625 L 9713.5009765625 7190.265625 C 9710.7431640625 7190.265625 9708.4990234375 7192.50830078125 9708.4990234375 7195.2646484375 L 9708.4990234375 7223.26513671875 C 9708.4990234375 7226.02294921875 9710.7431640625 7228.2666015625 9713.5009765625 7228.2666015625 L 9782.4990234375 7228.2666015625 M 9782.4990234375 7229.2666015625 L 9713.5009765625 7229.2666015625 C 9710.1865234375 7229.2666015625 9707.4990234375 7226.5791015625 9707.4990234375 7223.26513671875 L 9707.4990234375 7195.2646484375 C 9707.4990234375 7191.953125 9710.1865234375 7189.265625 9713.5009765625 7189.265625 L 9765.1337890625 7189.265625 L 9771.220703125 7181.72900390625 C 9771.6201171875 7181.23388671875 9772.376953125 7181.23193359375 9772.7783203125 7181.72900390625 L 9778.865234375 7189.265625 L 9782.4990234375 7189.265625 C 9785.8134765625 7189.265625 9788.5009765625 7191.953125 9788.5009765625 7195.2646484375 L 9788.5009765625 7223.26513671875 C 9788.5009765625 7226.5791015625 9785.8134765625 7229.2666015625 9782.4990234375 7229.2666015625 Z" stroke="none" fill="#e3e3e3"/>
        </g>
      </g>
      <text id="Copied_" data-name="Copied!" transform="translate(-72.744 -40.143)" font-size="14" font-family="Inter-Medium, Inter" font-weight="500"><tspan x="0" y="0">Copied!</tspan></text>
    </g>
  </g>
</svg>
