<svg
	xmlns="http://www.w3.org/2000/svg"
	width="12.266" height="12.266" viewBox="0 0 15.266 15.266">
	<path id="download_FILL0_wght300_GRAD0_opsz24"
	d="M187.634-768.511l-4.345-4.345,1.073-1.1,2.509,2.509V-780H188.4v8.549l2.509-2.509,1.073,1.1Zm-5.793,3.777a1.776,1.776,0,0,1-1.305-.534,1.776,1.776,0,0,1-.534-1.305v-2.76h1.527v2.76a.3.3,0,0,0,.1.215.3.3,0,0,0,.215.1h11.586a.3.3,0,0,0,.215-.1.3.3,0,0,0,.1-.215v-2.76h1.527v2.76a1.776,1.776,0,0,1-.534,1.305,1.776,1.776,0,0,1-1.305.534Z"
	transform="translate(-180.001 779.999)" fill="#828385e0" />
</svg>