<svg width="37" height="48" viewBox="0 0 37 48" fill="none" xmlns="http://www.w3.org/2000/svg">
<path id="description_FILL0_wght200_GRAD0_opsz24" d="M9.18953 38.0675H27.5665V35.4425H9.18953V38.0675ZM9.18953 27.5675H27.5665V24.9425H9.18953V27.5675ZM4.24153 47.2575C3.68083 47.2725 3.12298 47.1725 2.60239 46.9638C2.08179 46.755 1.60947 46.4417 1.21452 46.0435C0.816292 45.6483 0.50322 45.1758 0.294601 44.655C0.0859817 44.1343 -0.0137603 43.5762 0.00152524 43.0154V4.2425C-0.0134927 3.6818 0.0864682 3.12394 0.295257 2.60334C0.504046 2.08274 0.817243 1.61041 1.21553 1.21546C1.61047 0.817175 2.0828 0.504023 2.60339 0.295235C3.12399 0.086446 3.68182 -0.0135454 4.24252 0.00147251H24.9425L36.7565 11.8155V43.0154C36.7715 43.5762 36.6716 44.134 36.4628 44.6546C36.254 45.1752 35.9408 45.6475 35.5425 46.0425C35.1476 46.4408 34.6753 46.754 34.1547 46.9628C33.6341 47.1716 33.0762 47.2716 32.5155 47.2565L4.24153 47.2575ZM23.6285 13.1285V2.62849H4.24252C4.03311 2.63212 3.82662 2.67827 3.63562 2.76423C3.44462 2.85019 3.27312 2.97415 3.13153 3.12849C2.97719 3.27008 2.85326 3.44158 2.7673 3.63258C2.68135 3.82357 2.63516 4.03003 2.63153 4.23945V43.0125C2.63516 43.2219 2.68135 43.4284 2.7673 43.6194C2.85326 43.8104 2.97719 43.9819 3.13153 44.1235C3.27312 44.2778 3.44462 44.4017 3.63562 44.4877C3.82662 44.5736 4.03311 44.6199 4.24252 44.6235H32.5145C32.7239 44.6199 32.9304 44.5736 33.1214 44.4877C33.3124 44.4017 33.4839 44.2778 33.6255 44.1235C33.7799 43.9819 33.9038 43.8104 33.9897 43.6194C34.0757 43.4284 34.1219 43.2219 34.1255 43.0125V13.1245L23.6285 13.1285Z" fill="#1D9027"/>
</svg>
