<svg xmlns="http://www.w3.org/2000/svg" width="20.475" height="20.475" viewBox="0 0 20.475 20.475">
  <path id="library_books_FILL0_wght200_GRAD0_opsz24" 
  d="M147.637-833.564h6.549v-3.142h-6.549Zm0,6.31h8.18v-1.175h-8.18Zm0-3.033h8.18v-1.175h-8.18Zm-2.214,6.736a1.838,1.838,0,0,1-1.355-.543,1.839,1.839,0,0,1-.543-1.355V-838.1a1.838,1.838,0,0,1,.543-1.355,1.838,1.838,0,0,1,1.355-.543h12.654a1.838,1.838,0,0,1,1.355.543,1.838,1.838,0,0,1,.543,1.355v12.654a1.838,1.838,0,0,1-.543,1.355,1.838,1.838,0,0,1-1.355.543Zm0-1.175h12.654a.691.691,0,0,0,.5-.226.691.691,0,0,0,.226-.5V-838.1a.691.691,0,0,0-.226-.5.691.691,0,0,0-.5-.226H145.423a.691.691,0,0,0-.5.226.691.691,0,0,0-.226.5v12.654a.691.691,0,0,0,.226.5A.691.691,0,0,0,145.423-824.725Zm-3.525,4.7a1.838,1.838,0,0,1-1.355-.543,1.838,1.838,0,0,1-.543-1.355v-13.829h1.175v13.829a.691.691,0,0,0,.226.5.691.691,0,0,0,.5.226h13.829v1.175Zm2.8-18.8v0Z" 
  transform="translate(-139.75 840.25)" fill="#1447B2" stroke="#1447B2" stroke-width="0.5"/>
</svg>
