<svg width="44" height="44" viewBox="0 0 44 44" fill="none" xmlns="http://www.w3.org/2000/svg">
<path d="M11.6179 24.9824C12.3597 24.9824 12.9909 24.7228 13.5115 24.2036C14.0324 23.6845 14.2929 23.0542 14.2929 22.3127C14.2929 21.5708 14.0333 20.9396 13.5142 20.419C12.995 19.8981 12.3647 19.6376 11.6232 19.6376C10.8813 19.6376 10.2501 19.8972 9.72956 20.4164C9.20862 20.9355 8.94816 21.5658 8.94816 22.3073C8.94816 23.0492 9.20773 23.6804 9.72689 24.201C10.246 24.7219 10.8764 24.9824 11.6179 24.9824ZM22.3073 24.9824C23.0492 24.9824 23.6804 24.7228 24.201 24.2036C24.7219 23.6845 24.9824 23.0542 24.9824 22.3127C24.9824 21.5708 24.7228 20.9396 24.2036 20.419C23.6845 19.8981 23.0542 19.6376 22.3127 19.6376C21.5708 19.6376 20.9396 19.8972 20.419 20.4164C19.8981 20.9355 19.6376 21.5658 19.6376 22.3073C19.6376 23.0492 19.8972 23.6804 20.4164 24.201C20.9355 24.7219 21.5658 24.9824 22.3073 24.9824ZM32.9968 24.9824C33.7387 24.9824 34.3699 24.7228 34.8904 24.2036C35.4114 23.6845 35.6718 23.0542 35.6718 22.3127C35.6718 21.5708 35.4123 20.9396 34.8931 20.419C34.374 19.8981 33.7436 19.6376 33.0021 19.6376C32.2603 19.6376 31.6291 19.8972 31.1085 20.4164C30.5876 20.9355 30.3271 21.5658 30.3271 22.3073C30.3271 23.0492 30.5867 23.6804 31.1058 24.201C31.625 24.7219 32.2553 24.9824 32.9968 24.9824ZM22.3137 42.62C19.5045 42.62 16.8641 42.087 14.3923 41.0209C11.9205 39.9548 9.77053 38.5079 7.94228 36.6804C6.11402 34.8528 4.66649 32.7037 3.59968 30.233C2.53323 27.7623 2 25.1226 2 22.3137C2 19.5045 2.53305 16.8641 3.59915 14.3923C4.66524 11.9205 6.11206 9.77053 7.93961 7.94228C9.76715 6.11402 11.9163 4.66649 14.387 3.59968C16.8577 2.53323 19.4974 2 22.3063 2C25.1155 2 27.7559 2.53305 30.2277 3.59914C32.6995 4.66524 34.8495 6.11206 36.6777 7.93961C38.506 9.76715 39.9535 11.9163 41.0203 14.387C42.0868 16.8577 42.62 19.4974 42.62 22.3063C42.62 25.1155 42.087 27.7559 41.0209 30.2277C39.9548 32.6995 38.5079 34.8495 36.6804 36.6777C34.8528 38.506 32.7037 39.9535 30.233 41.0203C27.7623 42.0868 25.1226 42.62 22.3137 42.62ZM22.31 39.4132C27.0846 39.4132 31.1288 37.7563 34.4426 34.4426C37.7563 31.1288 39.4132 27.0846 39.4132 22.31C39.4132 17.5354 37.7563 13.4912 34.4426 10.1774C31.1288 6.86371 27.0846 5.20684 22.31 5.20684C17.5354 5.20684 13.4912 6.86371 10.1774 10.1774C6.86371 13.4912 5.20684 17.5354 5.20684 22.31C5.20684 27.0846 6.86371 31.1288 10.1774 34.4426C13.4912 37.7563 17.5354 39.4132 22.31 39.4132Z" 
fill="#1447B2"/>
</svg>
