<svg xmlns="http://www.w3.org/2000/svg" width="11.808" height="14.481" viewBox="0 0 13.808 16.481">
  <path id="content_copy_FILL0_wght300_GRAD0_opsz24" d="M154.728-846.637a1.555,1.555,0,0,1-1.143-.468,1.555,1.555,0,0,1-.468-1.143V-858.39a1.554,1.554,0,0,1,.468-1.143,1.554,1.554,0,0,1,1.143-.468H162.2a1.554,1.554,0,0,1,1.143.468,1.555,1.555,0,0,1,.468,1.143v10.142a1.555,1.555,0,0,1-.468,1.143,1.555,1.555,0,0,1-1.143.468Zm0-1.336H162.2a.261.261,0,0,0,.188-.086.261.261,0,0,0,.086-.188V-858.39a.261.261,0,0,0-.086-.188.261.261,0,0,0-.188-.086h-7.469a.261.261,0,0,0-.188.086.261.261,0,0,0-.086.188v10.142a.261.261,0,0,0,.086.188A.261.261,0,0,0,154.728-847.974Zm-3.118,4.454a1.555,1.555,0,0,1-1.143-.468A1.555,1.555,0,0,1,150-845.13v-11.478h1.336v11.478a.261.261,0,0,0,.086.188.261.261,0,0,0,.188.086h8.806v1.336Zm2.844-4.454v0Z" transform="translate(-150 860)" fill="#5F6368"/>
</svg>
