<svg xmlns="http://www.w3.org/2000/svg" width="45.695" height="40.618" viewBox="0 0 45.695 40.618">
  <path id="dvr_FILL0_wght200_GRAD0_opsz24" d="M130.155-775.59a1.5,1.5,0,0,0,1.1-.461,1.5,1.5,0,0,0,.461-1.1,1.5,1.5,0,0,0-.461-1.1,1.5,1.5,0,0,0-1.1-.461,1.5,1.5,0,0,0-1.1.461,1.5,1.5,0,0,0-.461,1.1,1.5,1.5,0,0,0,.461,1.1A1.5,1.5,0,0,0,130.155-775.59Zm0-10.155a1.5,1.5,0,0,0,1.1-.461,1.5,1.5,0,0,0,.461-1.1,1.5,1.5,0,0,0-.461-1.1,1.5,1.5,0,0,0-1.1-.461,1.5,1.5,0,0,0-1.1.461,1.5,1.5,0,0,0-.461,1.1,1.5,1.5,0,0,0,.461,1.1A1.5,1.5,0,0,0,130.155-785.745Zm5.37,9.862H156.81v-2.539H135.525Zm0-10.155H156.81v-2.539H135.525Zm-.293,26.656v-5.077H124.1a3.972,3.972,0,0,1-2.927-1.174A3.972,3.972,0,0,1,120-768.56V-795.9a3.972,3.972,0,0,1,1.174-2.927A3.972,3.972,0,0,1,124.1-800h37.494a3.972,3.972,0,0,1,2.927,1.174A3.972,3.972,0,0,1,165.7-795.9v27.339a3.972,3.972,0,0,1-1.174,2.927,3.972,3.972,0,0,1-2.927,1.174H150.464v5.077ZM124.1-767h37.494a1.493,1.493,0,0,0,1.074-.488,1.493,1.493,0,0,0,.488-1.074V-795.9a1.493,1.493,0,0,0-.488-1.074,1.493,1.493,0,0,0-1.074-.488H124.1a1.493,1.493,0,0,0-1.074.488,1.493,1.493,0,0,0-.488,1.074v27.339a1.493,1.493,0,0,0,.488,1.074A1.493,1.493,0,0,0,124.1-767Zm-1.562,0v0Z" 
  transform="translate(-120 800)" fill="#1447b2"/>
</svg>
