<svg xmlns="http://www.w3.org/2000/svg" width="136.47" height="29.202" viewBox="0 0 136.47 29.202">
  <g id="MOSIP_Horizontal_Black" data-name="MOSIP Horizontal Black" transform="translate(-116.132 -56.529)">
    <g id="Group_23" data-name="Group 23" transform="translate(116.132 56.529)">
      <g id="Group_22" data-name="Group 22" transform="translate(0 0)">
        <path id="Path_1" data-name="Path 1" d="M610.042,242.1l-.022-7.741-3.8,6.372h-1.348l-3.773-6.2V242.1h-2.8V229.2h2.469l4.82,8.011,4.755-8.011h2.448l.032,12.885-2.782.011Z" transform="translate(-598.3 -228.974)" fill="#031640"/>
        <path id="Path_2" data-name="Path 2" d="M777.839,239.664a6.324,6.324,0,0,1-2.523-2.383,6.538,6.538,0,0,1-.917-3.418,6.466,6.466,0,0,1,.917-3.418,6.324,6.324,0,0,1,2.523-2.383,8.017,8.017,0,0,1,7.235,0,6.545,6.545,0,0,1,2.523,2.383,6.573,6.573,0,0,1-2.523,9.219,7.422,7.422,0,0,1-3.612.863A7.587,7.587,0,0,1,777.839,239.664Zm5.682-2.2A3.708,3.708,0,0,0,784.966,236a4.351,4.351,0,0,0,.528-2.135,4.237,4.237,0,0,0-.528-2.135,3.778,3.778,0,0,0-1.445-1.466,4.15,4.15,0,0,0-2.059-.528,4.012,4.012,0,0,0-2.059.528,3.777,3.777,0,0,0-1.445,1.466,4.351,4.351,0,0,0-.528,2.135,4.237,4.237,0,0,0,.528,2.135,3.777,3.777,0,0,0,1.445,1.466,4.151,4.151,0,0,0,2.059.528A4.267,4.267,0,0,0,783.521,237.464Z" transform="translate(-755.413 -227.189)" fill="#031640"/>
        <path id="Path_3" data-name="Path 3" d="M939.4,240.028a7.116,7.116,0,0,1-2.3-1.078l1.014-2.243a6.484,6.484,0,0,0,1.973.97,7.338,7.338,0,0,0,2.286.367,3.65,3.65,0,0,0,1.876-.377,1.119,1.119,0,0,0,.6-1,.976.976,0,0,0-.356-.766,2.638,2.638,0,0,0-.916-.485c-.377-.119-.884-.259-1.52-.41a21.055,21.055,0,0,1-2.415-.7,3.885,3.885,0,0,1-1.607-1.121,3.017,3.017,0,0,1-.668-2.059,3.669,3.669,0,0,1,.6-2.038,4.121,4.121,0,0,1,1.833-1.445,7.468,7.468,0,0,1,2.987-.539,10.074,10.074,0,0,1,2.415.291,6.72,6.72,0,0,1,2.059.852l-.916,2.264a7.136,7.136,0,0,0-3.569-1.013,3.374,3.374,0,0,0-1.854.41,1.229,1.229,0,0,0-.593,1.067,1.035,1.035,0,0,0,.69.981,10.576,10.576,0,0,0,2.113.636,21.044,21.044,0,0,1,2.415.7,4.044,4.044,0,0,1,1.607,1.1,2.951,2.951,0,0,1,.669,2.049,3.528,3.528,0,0,1-.615,2.016,4.13,4.13,0,0,1-1.855,1.445,7.523,7.523,0,0,1-3,.539A10.822,10.822,0,0,1,939.4,240.028Z" transform="translate(-900.57 -227.1)" fill="#031640"/>
        <path id="Path_4" data-name="Path 4" d="M1076,229.2h2.986v12.885H1076Z" transform="translate(-1024.494 -228.974)" fill="#031640"/>
        <path id="Path_5" data-name="Path 5" d="M1160.961,229.771a4.37,4.37,0,0,1,1.941,1.617,4.885,4.885,0,0,1,0,4.971,4.3,4.3,0,0,1-1.941,1.617,7.22,7.22,0,0,1-2.976.561h-2.6V242.1H1152.4V229.2h5.574A7.235,7.235,0,0,1,1160.961,229.771Zm-1.1,5.758a2.036,2.036,0,0,0,.7-1.65,2.066,2.066,0,0,0-.7-1.671,3.116,3.116,0,0,0-2.048-.582h-2.426V236.1h2.426A3.056,3.056,0,0,0,1159.861,235.529Z" transform="translate(-1092.657 -228.974)" fill="#031640"/>
      </g>
    </g>
    <path id="Path_155381" data-name="Path 155381" d="M.912-8.568H4.3a3.22,3.22,0,0,1,1.334.237,2.105,2.105,0,0,1,.8.592,2.009,2.009,0,0,1,.382.775,3.289,3.289,0,0,1,.1.775,3.224,3.224,0,0,1-.1.769,2.013,2.013,0,0,1-.382.769,2.06,2.06,0,0,1-.8.586A3.286,3.286,0,0,1,4.3-3.835H2.257V-.888H.912ZM2.257-4.932H4.225A1.754,1.754,0,0,0,4.688-5a1.324,1.324,0,0,0,.436-.21,1.075,1.075,0,0,0,.323-.387A1.329,1.329,0,0,0,5.57-6.2a1.571,1.571,0,0,0-.108-.624,1,1,0,0,0-.29-.393,1.033,1.033,0,0,0-.42-.2,2.277,2.277,0,0,0-.506-.054H2.257ZM12.573-2.125a.651.651,0,0,0,.059.323.249.249,0,0,0,.231.1h.129a.8.8,0,0,0,.172-.022v.85Q13.1-.855,13-.828t-.21.048q-.108.022-.215.032t-.183.011a1.182,1.182,0,0,1-.624-.151.75.75,0,0,1-.323-.527,2.169,2.169,0,0,1-.9.516,3.537,3.537,0,0,1-1.027.161,2.519,2.519,0,0,1-.721-.1,1.891,1.891,0,0,1-.608-.3,1.443,1.443,0,0,1-.42-.506,1.558,1.558,0,0,1-.156-.715A1.652,1.652,0,0,1,7.8-3.2,1.4,1.4,0,0,1,8.3-3.706a2.235,2.235,0,0,1,.688-.264q.382-.081.769-.124a6.293,6.293,0,0,1,.635-.091,2.978,2.978,0,0,0,.532-.091.815.815,0,0,0,.366-.2.548.548,0,0,0,.134-.4.628.628,0,0,0-.113-.387.758.758,0,0,0-.28-.231,1.208,1.208,0,0,0-.371-.108,2.974,2.974,0,0,0-.387-.027,1.54,1.54,0,0,0-.85.215.839.839,0,0,0-.376.667H7.818a1.846,1.846,0,0,1,.258-.893,1.783,1.783,0,0,1,.575-.57,2.354,2.354,0,0,1,.791-.3,4.707,4.707,0,0,1,.9-.086,3.807,3.807,0,0,1,.807.086,2.292,2.292,0,0,1,.715.28,1.549,1.549,0,0,1,.511.5,1.372,1.372,0,0,1,.194.748ZM11.346-3.674a1.489,1.489,0,0,1-.688.221q-.409.038-.818.113a2.621,2.621,0,0,0-.376.091,1.134,1.134,0,0,0-.323.161.708.708,0,0,0-.221.269.919.919,0,0,0-.081.4.515.515,0,0,0,.118.344.859.859,0,0,0,.285.221,1.32,1.32,0,0,0,.366.113,2.27,2.27,0,0,0,.36.032,2,2,0,0,0,.441-.054,1.467,1.467,0,0,0,.446-.183,1.175,1.175,0,0,0,.35-.328.83.83,0,0,0,.14-.489ZM13.9-6.449h1.151v1.076h.022a1.241,1.241,0,0,1,.21-.441,2.045,2.045,0,0,1,.376-.393,1.9,1.9,0,0,1,.489-.285,1.465,1.465,0,0,1,.549-.108,2.66,2.66,0,0,1,.3.011l.167.022v1.183q-.129-.022-.264-.038a2.211,2.211,0,0,0-.264-.016,1.409,1.409,0,0,0-.586.124,1.346,1.346,0,0,0-.479.366,1.792,1.792,0,0,0-.323.6,2.584,2.584,0,0,0-.118.818V-.888H13.9Zm3.227,0h.925V-8.116h1.226v1.667h1.108v.914H19.274v2.969a2.962,2.962,0,0,0,.016.333A.576.576,0,0,0,19.366-2a.36.36,0,0,0,.177.145.873.873,0,0,0,.323.048q.129,0,.258-.005a1.282,1.282,0,0,0,.258-.038V-.9l-.4.043a3.6,3.6,0,0,1-.4.022,2.715,2.715,0,0,1-.78-.091,1.041,1.041,0,0,1-.463-.269.928.928,0,0,1-.226-.446,3.359,3.359,0,0,1-.07-.613V-5.535h-.925Zm4.141,0h1.162v.818l.022.022a2.056,2.056,0,0,1,.731-.726,1.949,1.949,0,0,1,1-.264,2.079,2.079,0,0,1,1.441.473,1.812,1.812,0,0,1,.527,1.42V-.888H24.922v-3.5a1.511,1.511,0,0,0-.28-.952,1.016,1.016,0,0,0-.807-.3,1.332,1.332,0,0,0-.559.113,1.213,1.213,0,0,0-.42.312,1.466,1.466,0,0,0-.269.468,1.67,1.67,0,0,0-.1.57V-.888H21.264Zm9.993,2.291a1.977,1.977,0,0,0-.124-.559,1.49,1.49,0,0,0-.28-.468,1.385,1.385,0,0,0-.43-.323,1.268,1.268,0,0,0-.565-.124,1.474,1.474,0,0,0-.586.113,1.341,1.341,0,0,0-.452.312,1.543,1.543,0,0,0-.3.468,1.632,1.632,0,0,0-.124.581ZM28.4-3.351a2.136,2.136,0,0,0,.091.624,1.537,1.537,0,0,0,.274.527,1.322,1.322,0,0,0,.463.36,1.526,1.526,0,0,0,.667.134,1.473,1.473,0,0,0,.866-.231,1.367,1.367,0,0,0,.489-.694h1.162a2.312,2.312,0,0,1-.333.807,2.32,2.32,0,0,1-.57.6,2.461,2.461,0,0,1-.748.366,3.009,3.009,0,0,1-.866.124A2.945,2.945,0,0,1,28.73-.952a2.4,2.4,0,0,1-.855-.6,2.556,2.556,0,0,1-.527-.925,3.758,3.758,0,0,1-.177-1.183,3.347,3.347,0,0,1,.188-1.124,2.878,2.878,0,0,1,.538-.936,2.572,2.572,0,0,1,.844-.64A2.561,2.561,0,0,1,29.859-6.6a2.492,2.492,0,0,1,1.178.274A2.585,2.585,0,0,1,31.9-5.6a2.94,2.94,0,0,1,.5,1.038,3.182,3.182,0,0,1,.081,1.21Zm5.024-3.1h1.151v1.076h.022a1.241,1.241,0,0,1,.21-.441,2.045,2.045,0,0,1,.376-.393,1.9,1.9,0,0,1,.489-.285,1.465,1.465,0,0,1,.549-.108,2.66,2.66,0,0,1,.3.011l.167.022v1.183q-.129-.022-.264-.038a2.211,2.211,0,0,0-.264-.016,1.409,1.409,0,0,0-.586.124,1.346,1.346,0,0,0-.479.366,1.792,1.792,0,0,0-.323.6,2.584,2.584,0,0,0-.118.818V-.888H33.42Zm6.927-2.119H42.24l2.119,6.013h.022l2.065-6.013h1.872v7.68h-1.28V-6.815h-.022L44.886-.888H43.779l-2.13-5.927h-.022V-.888h-1.28Zm14.07,6.443a.651.651,0,0,0,.059.323.249.249,0,0,0,.231.1h.129a.8.8,0,0,0,.172-.022v.85q-.065.022-.167.048t-.21.048q-.108.022-.215.032t-.183.011a1.182,1.182,0,0,1-.624-.151.75.75,0,0,1-.323-.527,2.169,2.169,0,0,1-.9.516,3.537,3.537,0,0,1-1.027.161,2.519,2.519,0,0,1-.721-.1,1.891,1.891,0,0,1-.608-.3,1.443,1.443,0,0,1-.42-.506,1.558,1.558,0,0,1-.156-.715,1.652,1.652,0,0,1,.188-.839,1.4,1.4,0,0,1,.495-.506,2.235,2.235,0,0,1,.688-.264q.382-.081.769-.124a6.293,6.293,0,0,1,.635-.091,2.978,2.978,0,0,0,.532-.091.815.815,0,0,0,.366-.2.548.548,0,0,0,.134-.4.628.628,0,0,0-.113-.387.758.758,0,0,0-.28-.231A1.208,1.208,0,0,0,52.5-5.6a2.974,2.974,0,0,0-.387-.027,1.54,1.54,0,0,0-.85.215.839.839,0,0,0-.376.667H49.663a1.846,1.846,0,0,1,.258-.893,1.784,1.784,0,0,1,.575-.57,2.355,2.355,0,0,1,.791-.3,4.707,4.707,0,0,1,.9-.086A3.807,3.807,0,0,1,53-6.513a2.292,2.292,0,0,1,.715.28,1.549,1.549,0,0,1,.511.5,1.372,1.372,0,0,1,.194.748ZM53.191-3.674a1.489,1.489,0,0,1-.688.221q-.409.038-.818.113a2.621,2.621,0,0,0-.376.091,1.134,1.134,0,0,0-.323.161.708.708,0,0,0-.221.269.919.919,0,0,0-.081.4.515.515,0,0,0,.118.344.86.86,0,0,0,.285.221,1.32,1.32,0,0,0,.366.113,2.27,2.27,0,0,0,.36.032,2,2,0,0,0,.441-.054,1.467,1.467,0,0,0,.446-.183,1.175,1.175,0,0,0,.35-.328.83.83,0,0,0,.14-.489ZM55.74-6.449H56.9v.818l.022.022a2.056,2.056,0,0,1,.731-.726,1.949,1.949,0,0,1,1-.264,2.079,2.079,0,0,1,1.441.473,1.812,1.812,0,0,1,.527,1.42V-.888H59.4v-3.5a1.511,1.511,0,0,0-.28-.952,1.016,1.016,0,0,0-.807-.3,1.332,1.332,0,0,0-.559.113,1.213,1.213,0,0,0-.42.312,1.467,1.467,0,0,0-.269.468,1.67,1.67,0,0,0-.1.57V-.888H55.74ZM66.573-2.125a.651.651,0,0,0,.059.323.249.249,0,0,0,.231.1h.129a.8.8,0,0,0,.172-.022v.85Q67.1-.855,67-.828t-.21.048q-.108.022-.215.032t-.183.011a1.182,1.182,0,0,1-.624-.151.75.75,0,0,1-.323-.527,2.169,2.169,0,0,1-.9.516,3.537,3.537,0,0,1-1.027.161,2.519,2.519,0,0,1-.721-.1,1.891,1.891,0,0,1-.608-.3,1.444,1.444,0,0,1-.42-.506,1.558,1.558,0,0,1-.156-.715A1.652,1.652,0,0,1,61.8-3.2a1.4,1.4,0,0,1,.495-.506,2.235,2.235,0,0,1,.688-.264q.382-.081.769-.124a6.292,6.292,0,0,1,.635-.091,2.978,2.978,0,0,0,.532-.091.815.815,0,0,0,.366-.2.548.548,0,0,0,.134-.4.628.628,0,0,0-.113-.387.758.758,0,0,0-.28-.231,1.208,1.208,0,0,0-.371-.108,2.974,2.974,0,0,0-.387-.027,1.54,1.54,0,0,0-.85.215.839.839,0,0,0-.376.667H61.818a1.846,1.846,0,0,1,.258-.893,1.783,1.783,0,0,1,.575-.57,2.354,2.354,0,0,1,.791-.3,4.707,4.707,0,0,1,.9-.086,3.807,3.807,0,0,1,.807.086,2.292,2.292,0,0,1,.715.28,1.549,1.549,0,0,1,.511.5,1.372,1.372,0,0,1,.194.748ZM65.346-3.674a1.489,1.489,0,0,1-.688.221q-.409.038-.818.113a2.621,2.621,0,0,0-.376.091,1.134,1.134,0,0,0-.323.161.708.708,0,0,0-.221.269.919.919,0,0,0-.081.4.515.515,0,0,0,.118.344.859.859,0,0,0,.285.221,1.32,1.32,0,0,0,.366.113,2.27,2.27,0,0,0,.36.032,2,2,0,0,0,.441-.054,1.467,1.467,0,0,0,.446-.183,1.175,1.175,0,0,0,.35-.328.83.83,0,0,0,.14-.489Zm7.691,2.5A2.367,2.367,0,0,1,72.333.7a2.981,2.981,0,0,1-2.028.619,4.245,4.245,0,0,1-.844-.086,2.509,2.509,0,0,1-.775-.29A1.867,1.867,0,0,1,68.1.4a1.635,1.635,0,0,1-.28-.818h1.226a.982.982,0,0,0,.183.42.942.942,0,0,0,.307.253,1.166,1.166,0,0,0,.393.118A3.644,3.644,0,0,0,70.38.4,1.43,1.43,0,0,0,71.467.038a1.481,1.481,0,0,0,.344-1.054v-.85H71.79a1.865,1.865,0,0,1-.7.721,1.891,1.891,0,0,1-.963.258,2.541,2.541,0,0,1-1.135-.231,2.159,2.159,0,0,1-.775-.635,2.637,2.637,0,0,1-.446-.93,4.391,4.391,0,0,1-.14-1.129A3.282,3.282,0,0,1,67.8-4.878a2.715,2.715,0,0,1,.495-.887,2.37,2.37,0,0,1,.791-.608,2.407,2.407,0,0,1,1.06-.226,2.134,2.134,0,0,1,.968.221,1.5,1.5,0,0,1,.678.694h.022v-.764h1.226Zm-2.722-.678a1.352,1.352,0,0,0,.694-.167,1.362,1.362,0,0,0,.463-.441,1.942,1.942,0,0,0,.258-.624,3.124,3.124,0,0,0,.081-.7,2.744,2.744,0,0,0-.086-.688,1.85,1.85,0,0,0-.264-.592A1.274,1.274,0,0,0,71-5.481a1.445,1.445,0,0,0-.683-.151,1.29,1.29,0,0,0-.688.172,1.379,1.379,0,0,0-.452.446,1.926,1.926,0,0,0-.247.624,3.287,3.287,0,0,0-.075.694,2.639,2.639,0,0,0,.086.672,1.857,1.857,0,0,0,.264.586,1.406,1.406,0,0,0,.452.42A1.283,1.283,0,0,0,70.316-1.856Zm7.777-2.3a1.977,1.977,0,0,0-.124-.559,1.491,1.491,0,0,0-.28-.468,1.385,1.385,0,0,0-.43-.323,1.268,1.268,0,0,0-.565-.124,1.474,1.474,0,0,0-.586.113,1.341,1.341,0,0,0-.452.312,1.543,1.543,0,0,0-.3.468,1.632,1.632,0,0,0-.124.581Zm-2.861.807a2.136,2.136,0,0,0,.091.624A1.537,1.537,0,0,0,75.6-2.2a1.322,1.322,0,0,0,.463.36,1.526,1.526,0,0,0,.667.134,1.473,1.473,0,0,0,.866-.231,1.367,1.367,0,0,0,.489-.694h1.162a2.312,2.312,0,0,1-.333.807,2.32,2.32,0,0,1-.57.6,2.461,2.461,0,0,1-.748.366,3.009,3.009,0,0,1-.866.124,2.945,2.945,0,0,1-1.162-.215,2.4,2.4,0,0,1-.855-.6,2.556,2.556,0,0,1-.527-.925,3.758,3.758,0,0,1-.177-1.183,3.348,3.348,0,0,1,.188-1.124,2.877,2.877,0,0,1,.538-.936,2.572,2.572,0,0,1,.844-.64A2.561,2.561,0,0,1,76.695-6.6a2.492,2.492,0,0,1,1.178.274,2.585,2.585,0,0,1,.866.726,2.94,2.94,0,0,1,.5,1.038,3.182,3.182,0,0,1,.081,1.21Zm5.024-3.1h1.162v.775h.032a3.148,3.148,0,0,1,.3-.376,1.643,1.643,0,0,1,.36-.29,1.823,1.823,0,0,1,.457-.188,2.27,2.27,0,0,1,.592-.07,2.015,2.015,0,0,1,.941.226,1.277,1.277,0,0,1,.619.7,2.475,2.475,0,0,1,.721-.678A1.943,1.943,0,0,1,86.462-6.6a2.009,2.009,0,0,1,1.372.43,1.836,1.836,0,0,1,.489,1.441v3.84H87.1V-4.136q0-.333-.022-.608a1.241,1.241,0,0,0-.124-.473.7.7,0,0,0-.307-.307,1.212,1.212,0,0,0-.559-.108,1.038,1.038,0,0,0-.9.387,1.851,1.851,0,0,0-.28,1.1V-.888H83.676V-4.459a1.514,1.514,0,0,0-.21-.877.882.882,0,0,0-.769-.3,1.126,1.126,0,0,0-.457.1,1.139,1.139,0,0,0-.387.28,1.4,1.4,0,0,0-.269.452,1.717,1.717,0,0,0-.1.613v3.3H80.255ZM93.433-4.158a1.978,1.978,0,0,0-.124-.559,1.491,1.491,0,0,0-.28-.468,1.385,1.385,0,0,0-.43-.323,1.268,1.268,0,0,0-.565-.124,1.474,1.474,0,0,0-.586.113A1.341,1.341,0,0,0,91-5.206a1.543,1.543,0,0,0-.3.468,1.633,1.633,0,0,0-.124.581Zm-2.861.807a2.136,2.136,0,0,0,.091.624,1.537,1.537,0,0,0,.274.527,1.322,1.322,0,0,0,.463.36,1.526,1.526,0,0,0,.667.134,1.473,1.473,0,0,0,.866-.231,1.367,1.367,0,0,0,.489-.694h1.162a2.312,2.312,0,0,1-.333.807,2.32,2.32,0,0,1-.57.6,2.461,2.461,0,0,1-.748.366,3.009,3.009,0,0,1-.866.124A2.945,2.945,0,0,1,90.9-.952a2.4,2.4,0,0,1-.855-.6,2.556,2.556,0,0,1-.527-.925,3.758,3.758,0,0,1-.177-1.183,3.347,3.347,0,0,1,.188-1.124,2.877,2.877,0,0,1,.538-.936,2.572,2.572,0,0,1,.844-.64A2.561,2.561,0,0,1,92.034-6.6a2.492,2.492,0,0,1,1.178.274,2.585,2.585,0,0,1,.866.726,2.94,2.94,0,0,1,.5,1.038,3.182,3.182,0,0,1,.081,1.21Zm5.024-3.1h1.162v.818l.022.022a2.056,2.056,0,0,1,.731-.726,1.949,1.949,0,0,1,1-.264,2.079,2.079,0,0,1,1.441.473,1.812,1.812,0,0,1,.527,1.42V-.888H99.252v-3.5a1.511,1.511,0,0,0-.28-.952,1.016,1.016,0,0,0-.807-.3,1.332,1.332,0,0,0-.559.113,1.213,1.213,0,0,0-.42.312,1.466,1.466,0,0,0-.269.468,1.67,1.67,0,0,0-.1.57V-.888H95.595Zm5.615,0h.925V-8.116h1.226v1.667h1.108v.914h-1.108v2.969a2.963,2.963,0,0,0,.016.333.576.576,0,0,0,.075.237.36.36,0,0,0,.177.145.873.873,0,0,0,.323.048q.129,0,.258-.005a1.282,1.282,0,0,0,.258-.038V-.9l-.4.043a3.6,3.6,0,0,1-.4.022,2.715,2.715,0,0,1-.78-.091,1.041,1.041,0,0,1-.463-.269.928.928,0,0,1-.226-.446,3.36,3.36,0,0,1-.07-.613V-5.535h-.925Zm7.3-2.119H111.9a3.22,3.22,0,0,1,1.334.237,2.105,2.105,0,0,1,.8.592,2.009,2.009,0,0,1,.382.775,3.29,3.29,0,0,1,.1.775,3.224,3.224,0,0,1-.1.769,2.013,2.013,0,0,1-.382.769,2.06,2.06,0,0,1-.8.586,3.286,3.286,0,0,1-1.334.231h-2.044V-.888h-1.345Zm1.345,3.636h1.969A1.754,1.754,0,0,0,112.29-5a1.324,1.324,0,0,0,.436-.21,1.075,1.075,0,0,0,.323-.387,1.329,1.329,0,0,0,.124-.608,1.571,1.571,0,0,0-.108-.624,1,1,0,0,0-.29-.393,1.033,1.033,0,0,0-.42-.2,2.277,2.277,0,0,0-.506-.054h-1.99Zm8.208,4.2a3.028,3.028,0,0,1-1.189-.221A2.535,2.535,0,0,1,116-1.565a2.6,2.6,0,0,1-.549-.925,3.561,3.561,0,0,1-.188-1.183,3.527,3.527,0,0,1,.188-1.173A2.6,2.6,0,0,1,116-5.771a2.535,2.535,0,0,1,.882-.608,3.028,3.028,0,0,1,1.189-.221,3.029,3.029,0,0,1,1.189.221,2.535,2.535,0,0,1,.882.608,2.6,2.6,0,0,1,.549.925,3.527,3.527,0,0,1,.188,1.173,3.561,3.561,0,0,1-.188,1.183,2.6,2.6,0,0,1-.549.925,2.535,2.535,0,0,1-.882.608A3.029,3.029,0,0,1,118.066-.737Zm0-.968a1.407,1.407,0,0,0,.71-.172,1.5,1.5,0,0,0,.495-.452,1.972,1.972,0,0,0,.285-.629,2.815,2.815,0,0,0,.091-.715,2.836,2.836,0,0,0-.091-.71,1.9,1.9,0,0,0-.285-.629,1.52,1.52,0,0,0-.495-.446,1.407,1.407,0,0,0-.71-.172,1.407,1.407,0,0,0-.71.172,1.519,1.519,0,0,0-.495.446,1.9,1.9,0,0,0-.285.629,2.837,2.837,0,0,0-.091.71,2.816,2.816,0,0,0,.091.715,1.972,1.972,0,0,0,.285.629,1.5,1.5,0,0,0,.495.452A1.407,1.407,0,0,0,118.066-1.705Zm3.83-4.744h1.151v1.076h.022a1.241,1.241,0,0,1,.21-.441,2.045,2.045,0,0,1,.377-.393,1.9,1.9,0,0,1,.489-.285,1.465,1.465,0,0,1,.549-.108,2.661,2.661,0,0,1,.3.011l.167.022v1.183q-.129-.022-.264-.038a2.211,2.211,0,0,0-.264-.016,1.409,1.409,0,0,0-.586.124,1.346,1.346,0,0,0-.479.366,1.792,1.792,0,0,0-.323.6,2.584,2.584,0,0,0-.118.818V-.888H121.9Zm3.227,0h.925V-8.116h1.226v1.667h1.108v.914h-1.108v2.969a2.959,2.959,0,0,0,.016.333.576.576,0,0,0,.075.237.36.36,0,0,0,.177.145.873.873,0,0,0,.323.048q.129,0,.258-.005a1.282,1.282,0,0,0,.258-.038V-.9l-.4.043a3.6,3.6,0,0,1-.4.022,2.715,2.715,0,0,1-.78-.091,1.041,1.041,0,0,1-.463-.269.928.928,0,0,1-.226-.446,3.359,3.359,0,0,1-.07-.613V-5.535h-.925Zm8.8,4.324a.651.651,0,0,0,.059.323.249.249,0,0,0,.231.1h.129a.8.8,0,0,0,.172-.022v.85q-.065.022-.167.048t-.21.048q-.108.022-.215.032t-.183.011a1.182,1.182,0,0,1-.624-.151.75.75,0,0,1-.323-.527,2.169,2.169,0,0,1-.9.516,3.537,3.537,0,0,1-1.027.161,2.519,2.519,0,0,1-.721-.1,1.891,1.891,0,0,1-.608-.3,1.444,1.444,0,0,1-.42-.506,1.558,1.558,0,0,1-.156-.715,1.652,1.652,0,0,1,.188-.839,1.4,1.4,0,0,1,.495-.506,2.235,2.235,0,0,1,.688-.264q.382-.081.769-.124a6.293,6.293,0,0,1,.635-.091,2.979,2.979,0,0,0,.532-.091.815.815,0,0,0,.366-.2.548.548,0,0,0,.134-.4.628.628,0,0,0-.113-.387.758.758,0,0,0-.28-.231,1.209,1.209,0,0,0-.371-.108,2.974,2.974,0,0,0-.387-.027,1.54,1.54,0,0,0-.85.215.839.839,0,0,0-.376.667h-1.226a1.846,1.846,0,0,1,.258-.893,1.783,1.783,0,0,1,.576-.57,2.354,2.354,0,0,1,.791-.3,4.707,4.707,0,0,1,.9-.086,3.807,3.807,0,0,1,.807.086,2.291,2.291,0,0,1,.715.28,1.549,1.549,0,0,1,.511.5,1.372,1.372,0,0,1,.194.748ZM132.7-3.674a1.489,1.489,0,0,1-.688.221q-.409.038-.818.113a2.621,2.621,0,0,0-.376.091,1.134,1.134,0,0,0-.323.161.708.708,0,0,0-.221.269.919.919,0,0,0-.081.4.515.515,0,0,0,.118.344.859.859,0,0,0,.285.221,1.32,1.32,0,0,0,.366.113,2.27,2.27,0,0,0,.36.032,2,2,0,0,0,.441-.054,1.466,1.466,0,0,0,.446-.183,1.175,1.175,0,0,0,.35-.328.83.83,0,0,0,.14-.489Zm2.582-4.894H136.5v7.68h-1.226Z" transform="translate(116.099 84.413)" fill="#031640"/>
  </g>
</svg>
