<svg width="18" height="16" viewBox="0 0 22 20" fill="none" xmlns="http://www.w3.org/2000/svg">
	<path d="M5.5 12.1C5.81167 12.1 6.07292 11.9946 6.28375 11.7837C6.49458 11.5729 6.6 11.3117 6.6 11C6.6 10.6883 6.49458 10.4271 6.28375 10.2163C6.07292 10.0054 5.81167 9.9 5.5 9.9C5.18833 9.9 4.92708 10.0054 4.71625 10.2163C4.50542 10.4271 4.4 10.6883 4.4 11C4.4 11.3117 4.50542 11.5729 4.71625 11.7837C4.92708 11.9946 5.18833 12.1 5.5 12.1ZM5.5 7.7C5.81167 7.7 6.07292 7.59458 6.28375 7.38375C6.49458 7.17292 6.6 6.91167 6.6 6.6C6.6 6.28833 6.49458 6.02708 6.28375 5.81625C6.07292 5.60542 5.81167 5.5 5.5 5.5C5.18833 5.5 4.92708 5.60542 4.71625 5.81625C4.50542 6.02708 4.4 6.28833 4.4 6.6C4.4 6.91167 4.50542 7.17292 4.71625 7.38375C4.92708 7.59458 5.18833 7.7 5.5 7.7ZM7.7 12.1H17.6V9.9H7.7V12.1ZM7.7 7.7H17.6V5.5H7.7V7.7ZM6.6 19.8V17.6H2.2C1.595 17.6 1.07708 17.3846 0.64625 16.9538C0.215417 16.5229 0 16.005 0 15.4V2.2C0 1.595 0.215417 1.07708 0.64625 0.64625C1.07708 0.215417 1.595 0 2.2 0H19.8C20.405 0 20.9229 0.215417 21.3538 0.64625C21.7846 1.07708 22 1.595 22 2.2V15.4C22 16.005 21.7846 16.5229 21.3538 16.9538C20.9229 17.3846 20.405 17.6 19.8 17.6H15.4V19.8H6.6Z" fill="#1447B2"/>
</svg>
