<svg width="24" height="24" viewBox="0 0 24 24" fill="none" xmlns="http://www.w3.org/2000/svg">
<path d="M4 19.85V17.75H6.1V10.4C6.1 8.9475 6.5375 7.65687 7.4125 6.52812C8.2875 5.39937 9.425 4.66 10.825 4.31V3.575C10.825 3.1375 10.9781 2.76562 11.2844 2.45937C11.5906 2.15312 11.9625 2 12.4 2C12.8375 2 13.2094 2.15312 13.5156 2.45937C13.8219 2.76562 13.975 3.1375 13.975 3.575V4.31C15.375 4.66 16.5125 5.39937 17.3875 6.52812C18.2625 7.65687 18.7 8.9475 18.7 10.4V17.75H20.8V19.85H4ZM12.4 23C11.8225 23 11.3281 22.7944 10.9169 22.3831C10.5056 21.9719 10.3 21.4775 10.3 20.9H14.5C14.5 21.4775 14.2944 21.9719 13.8831 22.3831C13.4719 22.7944 12.9775 23 12.4 23ZM8.2 17.75H16.6V10.4C16.6 9.245 16.1887 8.25625 15.3663 7.43375C14.5437 6.61125 13.555 6.2 12.4 6.2C11.245 6.2 10.2562 6.61125 9.43375 7.43375C8.61125 8.25625 8.2 9.245 8.2 10.4V17.75Z" fill="#1447B2"/>
</svg>
