<svg width="13" height="13" viewBox="0 0 13 13" fill="none" xmlns="http://www.w3.org/2000/svg">
<path d="M6.5 9.78337L2.79998 6.08335L3.71345 5.14345L5.85 7.28V0H7.15V7.28L9.28655 5.14345L10.2 6.08335L6.5 9.78337ZM1.56672 13C1.12891 13 0.758333 12.8483 0.455 12.545C0.151667 12.2417 0 11.8711 0 11.4333V9.08332H1.3V11.4333C1.3 11.5 1.32781 11.5611 1.38342 11.6166C1.43888 11.6722 1.49998 11.7 1.56672 11.7H11.4333C11.5 11.7 11.5611 11.6722 11.6166 11.6166C11.6722 11.5611 11.7 11.5 11.7 11.4333V9.08332H13V11.4333C13 11.8711 12.8483 12.2417 12.545 12.545C12.2417 12.8483 11.8711 13 11.4333 13H1.56672Z" 
fill="#A5A5A5"/>
</svg>
