<svg width="110" height="110" viewBox="0 0 110 110" fill="none" xmlns="http://www.w3.org/2000/svg">
<g filter="url(#filter0_d_2977_14418)">
<path d="M95 52C95 29.9086 77.0914 12 55 12C32.9086 12 15 29.9086 15 52C15 74.0914 32.9086 92 55 92C77.0914 92 95 74.0914 95 52Z" fill="white"/>
</g>
<path d="M90.7901 51.9994C90.7901 32.2335 74.7666 16.21 55.0007 16.21C35.2347 16.21 19.2112 32.2335 19.2112 51.9994C19.2112 71.7654 35.2347 87.7889 55.0007 87.7889C74.7666 87.7889 90.7901 71.7654 90.7901 51.9994Z" fill="white" fill-opacity="0.08"/>
<path d="M90.7901 51.9994C90.7901 32.2335 74.7666 16.21 55.0007 16.21C35.2347 16.21 19.2112 32.2335 19.2112 51.9994C19.2112 71.7654 35.2347 87.7889 55.0007 87.7889C74.7666 87.7889 90.7901 71.7654 90.7901 51.9994Z" fill="#D14646" fill-opacity="0.08"/>
<circle cx="54.9997" cy="62.6667" r="2.66667" fill="#D14646"/>
<path d="M52.333 41.334H57.6663V57.334H52.333V41.334Z" fill="#D14646"/>
<defs>
<filter id="filter0_d_2977_14418" x="0" y="0" width="110" height="110" filterUnits="userSpaceOnUse" color-interpolation-filters="sRGB">
<feFlood flood-opacity="0" result="BackgroundImageFix"/>
<feColorMatrix in="SourceAlpha" type="matrix" values="0 0 0 0 0 0 0 0 0 0 0 0 0 0 0 0 0 0 127 0" result="hardAlpha"/>
<feOffset dy="3"/>
<feGaussianBlur stdDeviation="7.5"/>
<feComposite in2="hardAlpha" operator="out"/>
<feColorMatrix type="matrix" values="0 0 0 0 0 0 0 0 0 0 0 0 0 0 0 0 0 0 0.06 0"/>
<feBlend mode="normal" in2="BackgroundImageFix" result="effect1_dropShadow_2977_14418"/>
<feBlend mode="normal" in="SourceGraphic" in2="effect1_dropShadow_2977_14418" result="shape"/>
</filter>
</defs>
</svg>
