<svg width="40" height="40" viewBox="0 0 40 40" fill="none" xmlns="http://www.w3.org/2000/svg">
<path d="M0 20C0 8.95431 8.95431 0 20 0C31.0457 0 40 8.95431 40 20C40 31.0457 31.0457 40 20 40C8.95431 40 0 31.0457 0 20Z" fill="#FFD9D7"/>
<path d="M20 25.519C20.267 25.519 20.4908 25.4287 20.6714 25.2481C20.8521 25.0674 20.9424 24.8436 20.9424 24.5767C20.9424 24.3097 20.8521 24.0859 20.6714 23.9053C20.4908 23.7248 20.267 23.6346 20 23.6346C19.733 23.6346 19.5092 23.7248 19.3286 23.9053C19.148 24.0859 19.0576 24.3097 19.0576 24.5767C19.0576 24.8436 19.148 25.0674 19.3286 25.2481C19.5092 25.4287 19.733 25.519 20 25.519ZM19.125 21.2563H20.875V14.2563H19.125V21.2563ZM20.0021 31.0832C18.4691 31.0832 17.0281 30.7923 15.6793 30.2105C14.3304 29.6287 13.1571 28.8392 12.1594 27.8419C11.1617 26.8446 10.3718 25.6718 9.78965 24.3235C9.20767 22.9752 8.91669 21.5347 8.91669 20.0019C8.91669 18.4689 9.20758 17.0279 9.78935 15.6791C10.3711 14.3302 11.1607 13.1569 12.158 12.1593C13.1553 11.1616 14.3281 10.3716 15.6764 9.78946C17.0246 9.20749 18.4652 8.9165 19.998 8.9165C21.531 8.9165 22.9719 9.20739 24.3208 9.78917C25.6696 10.3709 26.8429 11.1605 27.8406 12.1578C28.8383 13.1551 29.6282 14.3279 30.2104 15.6762C30.7924 17.0244 31.0834 18.465 31.0834 19.9978C31.0834 21.5308 30.7925 22.9717 30.2107 24.3206C29.6289 25.6695 28.8394 26.8427 27.8421 27.8404C26.8448 28.8381 25.672 29.628 24.3237 30.2102C22.9754 30.7922 21.5349 31.0832 20.0021 31.0832ZM20 29.3332C22.6056 29.3332 24.8125 28.429 26.6209 26.6207C28.4292 24.8123 29.3334 22.6054 29.3334 19.9998C29.3334 17.3943 28.4292 15.1873 26.6209 13.379C24.8125 11.5707 22.6056 10.6665 20 10.6665C17.3945 10.6665 15.1875 11.5707 13.3792 13.379C11.5709 15.1873 10.6667 17.3943 10.6667 19.9998C10.6667 22.6054 11.5709 24.8123 13.3792 26.6207C15.1875 28.429 17.3945 29.3332 20 29.3332Z" fill="#DB372A"/>
</svg>
