<svg
	xmlns="http://www.w3.org/2000/svg"
	width="28.75"
	height="39.26"
	viewBox="0 0 36.754 47.255"
>
	<path
		id="upload_file_FILL0_wght200_GRAD0_opsz24"
		d="M217.064-801.227h2.625V-813.55l5.513,5.513,1.858-1.873-8.684-8.684-8.684,8.684,1.873,1.858,5.5-5.5Zm-12.823,8.482a4.107,4.107,0,0,1-3.027-1.214A4.108,4.108,0,0,1,200-796.986v-38.773a4.108,4.108,0,0,1,1.214-3.027A4.108,4.108,0,0,1,204.241-840h20.7l11.814,11.814v31.2a4.108,4.108,0,0,1-1.214,3.027,4.107,4.107,0,0,1-3.027,1.214Zm19.387-34.129v-10.5H204.241a1.544,1.544,0,0,0-1.111.5,1.544,1.544,0,0,0-.5,1.111v38.773a1.544,1.544,0,0,0,.5,1.111,1.544,1.544,0,0,0,1.111.5h28.272a1.544,1.544,0,0,0,1.111-.5,1.544,1.544,0,0,0,.5-1.111v-29.888Zm-21-10.5v0Z"
		transform="translate(-200 840)"
		fill="#1347b2"
	/>
</svg>