<svg xmlns="http://www.w3.org/2000/svg" width="20.41" height="20.41" viewBox="0 0 20.41 20.41">
  <path id="help_24dp_FILL0_wght300_GRAD0_opsz24" d="M110.193-843.763a1.057,1.057,0,0,0,.777-.317,1.059,1.059,0,0,0,.317-.778,1.056,1.056,0,0,0-.318-.777,1.059,1.059,0,0,0-.778-.317,1.056,1.056,0,0,0-.777.318,1.059,1.059,0,0,0-.317.778,1.056,1.056,0,0,0,.318.777A1.059,1.059,0,0,0,110.193-843.763Zm-.761-3.846h1.512a3.375,3.375,0,0,1,.232-1.267,4.7,4.7,0,0,1,1.028-1.257,7.73,7.73,0,0,0,1.085-1.309,2.608,2.608,0,0,0,.377-1.417,2.6,2.6,0,0,0-1-2.167,3.714,3.714,0,0,0-2.358-.78,3.408,3.408,0,0,0-2.226.718,4.048,4.048,0,0,0-1.257,1.691l1.38.553a3.106,3.106,0,0,1,.671-1.042,1.842,1.842,0,0,1,1.411-.507,1.772,1.772,0,0,1,1.408.522,1.707,1.707,0,0,1,.456,1.147,1.732,1.732,0,0,1-.312,1,4.758,4.758,0,0,1-.8.878,6.006,6.006,0,0,0-1.337,1.523A4.043,4.043,0,0,0,109.432-847.609Zm.775,8.02a9.942,9.942,0,0,1-3.98-.8,10.309,10.309,0,0,1-3.241-2.181,10.306,10.306,0,0,1-2.182-3.24,9.932,9.932,0,0,1-.8-3.979,9.942,9.942,0,0,1,.8-3.98,10.307,10.307,0,0,1,2.181-3.241,10.305,10.305,0,0,1,3.24-2.182,9.932,9.932,0,0,1,3.979-.8,9.942,9.942,0,0,1,3.98.8,10.308,10.308,0,0,1,3.241,2.181,10.307,10.307,0,0,1,2.182,3.24,9.933,9.933,0,0,1,.8,3.979,9.942,9.942,0,0,1-.8,3.98,10.308,10.308,0,0,1-2.181,3.241,10.306,10.306,0,0,1-3.24,2.182A9.932,9.932,0,0,1,110.207-839.59Zm0-1.611a8.294,8.294,0,0,0,6.1-2.5,8.294,8.294,0,0,0,2.5-6.1,8.294,8.294,0,0,0-2.5-6.1,8.294,8.294,0,0,0-6.1-2.5,8.294,8.294,0,0,0-6.1,2.5,8.294,8.294,0,0,0-2.5,6.1,8.294,8.294,0,0,0,2.5,6.1A8.294,8.294,0,0,0,110.205-841.2ZM110.205-849.795Z" transform="translate(-100 860)" fill="#1447b2"/>
</svg>
