<svg width="39" height="44" viewBox="0 0 39 44" fill="none" xmlns="http://www.w3.org/2000/svg">
<path d="M0 11C0 7.68629 2.68629 5 6 5H31C34.3137 5 37 7.68629 37 11V38C37 41.3137 34.3137 44 31 44H6C2.68629 44 0 41.3137 0 38V11Z" fill="#F0F5FF"/>
<path d="M11 31.85V29.75H13.1V22.4C13.1 20.9475 13.5375 19.6569 14.4125 18.5281C15.2875 17.3994 16.425 16.66 17.825 16.31V15.575C17.825 15.1375 17.9781 14.7656 18.2844 14.4594C18.5906 14.1531 18.9625 14 19.4 14C19.8375 14 20.2094 14.1531 20.5156 14.4594C20.8219 14.7656 20.975 15.1375 20.975 15.575V16.31C22.375 16.66 23.5125 17.3994 24.3875 18.5281C25.2625 19.6569 25.7 20.9475 25.7 22.4V29.75H27.8V31.85H11ZM19.4 35C18.8225 35 18.3281 34.7944 17.9169 34.3831C17.5056 33.9719 17.3 33.4775 17.3 32.9H21.5C21.5 33.4775 21.2944 33.9719 20.8831 34.3831C20.4719 34.7944 19.9775 35 19.4 35ZM15.2 29.75H23.6V22.4C23.6 21.245 23.1887 20.2562 22.3663 19.4337C21.5437 18.6112 20.555 18.2 19.4 18.2C18.245 18.2 17.2562 18.6112 16.4337 19.4337C15.6112 20.2562 15.2 21.245 15.2 22.4V29.75Z" fill="#1447B2"/>
<circle cx="34" cy="5" r="5" fill="#ED4537"/>
</svg>
