<svg xmlns="http://www.w3.org/2000/svg"
  width="46.745" height="47.255" viewBox="0 0 25.476 15.543">
  <path id="groups_24dp_FILL0_wght200_GRAD0_opsz24"
	d="M58.3-599.847V-601.8a3.266,3.266,0,0,1,.609-1.917,5.026,5.026,0,0,1,1.8-1.5,10.061,10.061,0,0,1,2.767-.95,17.753,17.753,0,0,1,3.487-.317,17.962,17.962,0,0,1,3.524.317,10.061,10.061,0,0,1,2.767.95,4.98,4.98,0,0,1,1.791,1.5,3.286,3.286,0,0,1,.6,1.917v1.951Zm18.907,0v-2.075a6.493,6.493,0,0,0-.182-1.564,5.858,5.858,0,0,0-.545-1.4q.543-.087.976-.125t.819-.038A6.238,6.238,0,0,1,82.086-604a3.076,3.076,0,0,1,1.691,2.657v1.5Zm-17.122-1.734H73.871v-.367q-.1-1.234-2.023-2.018a13.014,13.014,0,0,0-4.875-.784,13.014,13.014,0,0,0-4.875.784q-1.923.783-2.013,2.018Zm18.19-5.1a2.37,2.37,0,0,1-1.733-.735,2.359,2.359,0,0,1-.735-1.723,2.323,2.323,0,0,1,.735-1.731,2.414,2.414,0,0,1,1.739-.714,2.377,2.377,0,0,1,1.748.714,2.346,2.346,0,0,1,.714,1.721,2.4,2.4,0,0,1-.709,1.743A2.363,2.363,0,0,1,78.275-606.685Zm-11.29-1.1a3.689,3.689,0,0,1-2.7-1.109,3.652,3.652,0,0,1-1.117-2.693,3.652,3.652,0,0,1,1.109-2.709,3.694,3.694,0,0,1,2.694-1.094,3.684,3.684,0,0,1,2.709,1.09,3.662,3.662,0,0,1,1.093,2.7,3.722,3.722,0,0,1-1.09,2.7A3.621,3.621,0,0,1,66.985-607.785Zm0-1.734a1.95,1.95,0,0,0,1.453-.615,2.034,2.034,0,0,0,.6-1.469,1.985,1.985,0,0,0-.594-1.453,1.993,1.993,0,0,0-1.473-.6,2.02,2.02,0,0,0-1.453.595,1.966,1.966,0,0,0-.615,1.473,1.987,1.987,0,0,0,.615,1.453,2,2,0,0,0,1.469.615Zm-.007,8.507,0,0M66.973-611.587Z"
	transform="translate(-58.301 615.39)"
	fill="#1447b2" />
</svg>