<svg width="52" height="52" viewBox="0 0 52 52" fill="none" xmlns="http://www.w3.org/2000/svg">
<g id="Icon">
<rect width="52" height="52" fill="white"/>
<g id="Group 58648">
<path id="admin_panel_settings_24dp_FILL0_wght300_GRAD0_opsz24" d="M40.192 36.4883C40.5784 36.4951 40.9622 36.4228 41.3195 36.2756C41.6769 36.1285 42.0004 35.9097 42.27 35.6328C42.5469 35.3632 42.7658 35.0397 42.9129 34.6823C43.0601 34.325 43.1324 33.9413 43.1256 33.5548C43.1325 33.1684 43.0601 32.7847 42.913 32.4273C42.7658 32.0699 42.547 31.7465 42.27 31.4769C42.0004 31.1999 41.677 30.9811 41.3196 30.8339C40.9622 30.6868 40.5784 30.6144 40.192 30.6213C39.8055 30.6144 39.4217 30.6868 39.0643 30.8339C38.7069 30.9811 38.3835 31.1999 38.1139 31.4769C37.8369 31.7465 37.6181 32.0699 37.4709 32.4273C37.3238 32.7847 37.2514 33.1684 37.2583 33.5548C37.2515 33.9413 37.3238 34.325 37.471 34.6823C37.6182 35.0397 37.837 35.3632 38.1139 35.6328C38.3835 35.9097 38.707 36.1285 39.0644 36.2756C39.4218 36.4228 39.8055 36.4951 40.192 36.4883ZM40.192 42.3571C41.169 42.3688 42.1325 42.1278 42.989 41.6575C43.8151 41.2048 44.5223 40.5627 45.0523 39.784C44.3278 39.3499 43.5484 39.0147 42.7349 38.7872C41.9069 38.5573 41.0513 38.4423 40.192 38.4452C39.3326 38.4423 38.477 38.5573 37.649 38.7872C36.8355 39.0147 36.0562 39.3499 35.3316 39.784C35.8617 40.5627 36.5688 41.2048 37.3949 41.6575C38.2515 42.1275 39.215 42.3682 40.192 42.3562V42.3571ZM40.1947 45.2897C39.035 45.3105 37.8833 45.0934 36.8108 44.6518C35.7382 44.2102 34.7676 43.5535 33.9588 42.7221C33.1274 41.9133 32.4706 40.9427 32.0289 39.8702C31.5873 38.7978 31.3702 37.6461 31.391 36.4865C31.3702 35.3268 31.5873 34.1752 32.0289 33.1027C32.4706 32.0302 33.1274 31.0596 33.9588 30.2508C34.7676 29.4195 35.7382 28.7627 36.8108 28.3211C37.8833 27.8795 39.035 27.6624 40.1947 27.6833C41.3544 27.6624 42.5061 27.8795 43.5787 28.3211C44.6512 28.7627 45.6218 29.4195 46.4307 30.2508C47.2621 31.0596 47.9188 32.0302 48.3605 33.1027C48.8021 34.1752 49.0192 35.3268 48.9984 36.4865C49.0192 37.6461 48.8021 38.7978 48.3605 39.8702C47.9188 40.9427 47.2621 41.9133 46.4307 42.7221C45.6216 43.554 44.6506 44.2111 43.5775 44.6529C42.5045 45.0947 41.3522 45.3117 40.192 45.2906L40.1947 45.2897Z" fill="#1447B2"/>
<path id="Subtraction 1" d="M30.1154 43.4092H9.08711C8.54724 43.4225 8.01038 43.3257 7.50919 43.1246C7.00799 42.9235 6.55307 42.6223 6.17211 42.2396C5.78907 41.8585 5.48752 41.4034 5.28624 40.9021C5.08496 40.4007 4.98821 39.8635 5.00146 39.3234V12.0862C4.98681 11.5458 5.08243 11.0082 5.28263 10.506C5.48282 10.0039 5.78349 9.54787 6.16591 9.16582C6.54793 8.78335 7.00395 8.48282 7.50609 8.28262C8.00822 8.08242 8.5457 7.98676 9.08608 8.00147H36.3222C36.862 7.98817 37.3989 8.08502 37.9001 8.28612C38.4013 8.48722 38.8567 8.78834 39.2377 9.17111C39.6204 9.5521 39.9214 10.0071 40.1225 10.5083C40.3236 11.0094 40.4205 11.5463 40.4073 12.0862V24.9374H37.8784V12.0862C37.8738 11.8843 37.8282 11.6855 37.7445 11.5017C37.6608 11.3179 37.5408 11.1531 37.3915 11.0171C37.2552 10.868 37.0901 10.748 36.9062 10.6644C36.7223 10.5807 36.5231 10.5351 36.3211 10.5302H9.08504C8.8829 10.535 8.68405 10.5807 8.49998 10.6643C8.3159 10.748 8.15069 10.868 8.01414 11.0171C7.86527 11.1533 7.7455 11.3183 7.66217 11.502C7.57885 11.6858 7.53369 11.8845 7.52934 12.0862V39.3234C7.53406 39.5251 7.57939 39.7237 7.66269 39.9074C7.74599 40.0911 7.86556 40.2561 8.01414 40.3925C8.15069 40.5416 8.3159 40.6616 8.49998 40.7453C8.68405 40.829 8.8829 40.8746 9.08504 40.8794H30.1133V43.4081L30.1154 43.4092ZM22.0669 31.2037H13.8581V28.6749H22.0669V31.2026V31.2037ZM33.6759 24.6738H13.8545V22.1461H33.6759V24.6738ZM27.9498 17.8931H13.8545V15.0934H27.9498V17.8921V17.8931Z" fill="#1447B2"/>
</g>
</g>
</svg>
