<svg xmlns="http://www.w3.org/2000/svg" width="273" height="132" viewBox="0 0 273 132">
	<g id="Group_58184" data-name="Group 58184" transform="translate(-633 -323)">
		<g id="Group_58183" data-name="Group 58183" transform="translate(0 5.431)">
			<g id="page_under_construction" transform="translate(595.167 316.495)">
				<path id="Path_155" data-name="Path 155" d="M348.036,207.189H159.343c-1.754,0-3.18-1.805-3.18-4.025s1.427-4.025,3.18-4.025H348.036c1.754,0,3.18,1.805,3.18,4.025S349.79,207.189,348.036,207.189Z" transform="translate(-105.33 -114.842)" fill="#e6e6e6" />
				<path id="Path_175" data-name="Path 175" d="M360.375,176.189H121.586a4.025,4.025,0,1,1,0-8.049H360.375a4.025,4.025,0,0,1,0,8.049Z" transform="translate(-65.868 -104.635)" fill="#e6e6e6" />
				<path id="Path_155384" data-name="Path 155384" d="M119.084,176.189h90.358c.84,0,1.523-1.805,1.523-4.025s-.683-4.025-1.523-4.025H119.084c-.84,0-1.523,1.805-1.523,4.025S118.245,176.189,119.084,176.189Z" transform="translate(86.705 -63.735)" fill="#e6e6e6" />
				<path id="Path_179" data-name="Path 179" d="M333.4,238.189H200.586a4.025,4.025,0,0,1,0-8.049H333.4a4.025,4.025,0,0,1,0,8.049Z" transform="translate(-145.728 -125.048)" fill="#e6e6e6" />
				<path id="Path_155385" data-name="Path 155385" d="M118.084,176.189H149.07c.288,0,.522-1.805.522-4.025s-.234-4.025-.522-4.025H118.084c-.288,0-.522,1.805-.522,4.025S117.8,176.189,118.084,176.189Z" transform="translate(148.079 -83.682)" fill="#e6e6e6" />
				<path id="Path_155386" data-name="Path 155386" d="M118.084,176.189H149.07c.288,0,.522-1.805.522-4.025s-.234-4.025-.522-4.025H118.084c-.288,0-.522,1.805-.522,4.025S117.8,176.189,118.084,176.189Z" transform="translate(146.535 -143.682)" fill="#d0d0d0" />
				<path id="Path_155387" data-name="Path 155387" d="M118.084,176.189H149.07c.288,0,.522-1.805.522-4.025s-.234-4.025-.522-4.025H118.084c-.288,0-.522,1.805-.522,4.025S117.8,176.189,118.084,176.189Z" transform="translate(104.535 -143.682)" fill="#d0d0d0" />
				<path id="Path_155388" data-name="Path 155388" d="M118.084,176.189H149.07c.288,0,.522-1.805.522-4.025s-.234-4.025-.522-4.025H118.084c-.288,0-.522,1.805-.522,4.025S117.8,176.189,118.084,176.189Z" transform="translate(62.535 -143.682)" fill="#d0d0d0" />
				<path id="Path_155389" data-name="Path 155389" d="M118.084,176.189H149.07c.288,0,.522-1.805.522-4.025s-.234-4.025-.522-4.025H118.084c-.288,0-.522,1.805-.522,4.025S117.8,176.189,118.084,176.189Z" transform="translate(20.535 -143.682)" fill="#d0d0d0" />
				<path id="Path_155390" data-name="Path 155390" d="M118.084,176.189H149.07c.288,0,.522-1.805.522-4.025s-.234-4.025-.522-4.025H118.084c-.288,0-.522,1.805-.522,4.025S117.8,176.189,118.084,176.189Z" transform="translate(-21.465 -143.682)" fill="#d0d0d0" />
				<path id="Path_155391" data-name="Path 155391" d="M118.084,176.189H149.07c.288,0,.522-1.805.522-4.025s-.234-4.025-.522-4.025H118.084c-.288,0-.522,1.805-.522,4.025S117.8,176.189,118.084,176.189Z" transform="translate(-63.465 -143.682)" fill="#d0d0d0" />
			</g>
		</g>
		<g id="Rectangle_7160" data-name="Rectangle 7160" transform="translate(633 323)" fill="none" stroke="#d0d0d0" strokeWidth="1">
			<rect width="273" height="132" rx="20" stroke="none" />
			<rect x="0.5" y="0.5" width="272" height="131" rx="19.5" fill="none" />
		</g>
	</g>
</svg>