<svg width="37" height="49" viewBox="0 0 37 49" fill="none" xmlns="http://www.w3.org/2000/svg">
    <path
        d="M17.0643 39.6445H19.6896V27.3208L25.2027 32.8339L27.0606 30.9608L18.377 22.2772L9.69331 30.9608L11.5664 32.8187L17.0643 27.3208V39.6445ZM4.24081 48.1261C3.03253 48.1261 2.02365 47.7214 1.21419 46.9119C0.404724 46.1025 0 45.0936 0 43.8853V5.11194C0 3.90363 0.404724 2.89478 1.21419 2.08533C2.02365 1.27582 3.03253 0.871094 4.24081 0.871094H24.9401L36.7539 12.6848V43.8853C36.7539 45.0936 36.3492 46.1025 35.5397 46.9119C34.7303 47.7214 33.7214 48.1261 32.5131 48.1261H4.24081ZM23.6275 13.9975V3.49634H4.24081C3.83694 3.49634 3.46672 3.66467 3.13011 4.00122C2.79355 4.33783 2.62527 4.70801 2.62527 5.11194V43.8853C2.62527 44.2892 2.79355 44.6594 3.13011 44.996C3.46672 45.3325 3.83694 45.5009 4.24081 45.5009H32.5131C32.9169 45.5009 33.2872 45.3325 33.6238 44.996C33.9603 44.6594 34.1286 44.2892 34.1286 43.8853V13.9975H23.6275Z"
        fill="#1347B2" />
</svg>