<svg xmlns="http://www.w3.org/2000/svg" width="25.125" height="28.252" viewBox="0 0 25.125 28.252">
  <path id="calendar_month_FILL0_wght300_GRAD0_opsz24" d="M142.673-836.362a2.579,2.579,0,0,1-1.9-.776,2.579,2.579,0,0,1-.776-1.9v-19.782a2.579,2.579,0,0,1,.776-1.9,2.579,2.579,0,0,1,1.9-.776h2.046v-3.127h2.274v3.127h11.2v-3.127h2.217v3.127h2.046a2.579,2.579,0,0,1,1.9.776,2.579,2.579,0,0,1,.776,1.9v19.782a2.579,2.579,0,0,1-.776,1.9,2.579,2.579,0,0,1-1.9.776Zm0-2.217h19.782a.435.435,0,0,0,.313-.142.435.435,0,0,0,.142-.313V-852.9H142.218v13.87a.435.435,0,0,0,.142.313A.435.435,0,0,0,142.673-838.579Zm-.455-16.542h20.691v-3.695a.435.435,0,0,0-.142-.313.435.435,0,0,0-.313-.142H142.673a.435.435,0,0,0-.313.142.435.435,0,0,0-.142.313Zm0,0v0Zm10.346,7.788a1.26,1.26,0,0,1-.925-.382,1.26,1.26,0,0,1-.382-.925,1.26,1.26,0,0,1,.382-.925,1.26,1.26,0,0,1,.925-.382,1.26,1.26,0,0,1,.925.382,1.26,1.26,0,0,1,.382.925,1.26,1.26,0,0,1-.382.925A1.26,1.26,0,0,1,152.564-847.333Zm-5.912,0a1.26,1.26,0,0,1-.925-.382,1.26,1.26,0,0,1-.382-.925,1.26,1.26,0,0,1,.382-.925,1.26,1.26,0,0,1,.925-.382,1.26,1.26,0,0,1,.925.382,1.26,1.26,0,0,1,.382.925,1.26,1.26,0,0,1-.382.925A1.26,1.26,0,0,1,146.652-847.333Zm11.824,0a1.26,1.26,0,0,1-.925-.382,1.26,1.26,0,0,1-.382-.925,1.26,1.26,0,0,1,.382-.925,1.26,1.26,0,0,1,.925-.382,1.26,1.26,0,0,1,.925.382,1.26,1.26,0,0,1,.382.925,1.26,1.26,0,0,1-.382.925A1.26,1.26,0,0,1,158.475-847.333Zm-5.912,5.8a1.26,1.26,0,0,1-.925-.382,1.26,1.26,0,0,1-.382-.925,1.26,1.26,0,0,1,.382-.925,1.26,1.26,0,0,1,.925-.382,1.26,1.26,0,0,1,.925.382,1.26,1.26,0,0,1,.382.925,1.26,1.26,0,0,1-.382.925A1.26,1.26,0,0,1,152.564-841.535Zm-5.912,0a1.26,1.26,0,0,1-.925-.382,1.26,1.26,0,0,1-.382-.925,1.26,1.26,0,0,1,.382-.925,1.26,1.26,0,0,1,.925-.382,1.26,1.26,0,0,1,.925.382,1.26,1.26,0,0,1,.382.925,1.26,1.26,0,0,1-.382.925A1.26,1.26,0,0,1,146.652-841.535Zm11.824,0a1.26,1.26,0,0,1-.925-.382,1.26,1.26,0,0,1-.382-.925,1.26,1.26,0,0,1,.382-.925,1.26,1.26,0,0,1,.925-.382,1.26,1.26,0,0,1,.925.382,1.26,1.26,0,0,1,.382.925,1.26,1.26,0,0,1-.382.925A1.26,1.26,0,0,1,158.475-841.535Z" transform="translate(-140.001 864.614)" fill="#1447b2"/>
</svg>
