<svg width="60" height="60" viewBox="0 0 60 60" fill="none" xmlns="http://www.w3.org/2000/svg">
<g transform="translate(30 30) scale(1.45) translate(-30 -30)">
<path d="M47.1924 30.9004C47.7234 30.9004 48.1767 31.085 48.5459 31.4541C48.9151 31.8233 49.0996 32.2766 49.0996 32.8076V44.1924C49.0996 44.7234 48.9151 45.1767 48.5459 45.5459C48.1767 45.9151 47.7234 46.0996 47.1924 46.0996H31.8076C31.2766 46.0996 30.8233 45.9151 30.4541 45.5459C30.085 45.1767 29.9004 44.7234 29.9004 44.1924V32.8076C29.9004 32.2766 30.085 31.8233 30.4541 31.4541C30.8233 31.085 31.2766 30.9004 31.8076 30.9004H47.1924ZM31.8076 32.5996C31.7733 32.5996 31.7388 32.6101 31.7031 32.6357L31.667 32.667C31.6181 32.7158 31.5996 32.7619 31.5996 32.8076V44.1924C31.5996 44.2381 31.6181 44.2842 31.667 44.333L31.7031 44.3643C31.7388 44.3899 31.7733 44.4004 31.8076 44.4004H47.1924C47.2381 44.4004 47.2842 44.3819 47.333 44.333L47.3643 44.2969C47.3899 44.2612 47.4004 44.2267 47.4004 44.1924V32.8076C47.4004 32.7733 47.3899 32.7388 47.3643 32.7031L47.333 32.667C47.2842 32.6181 47.2381 32.5996 47.1924 32.5996H31.8076ZM36.5381 39.5537C37.6647 39.5537 38.5727 39.7459 39.2529 40.1387C39.938 40.5342 40.2919 41.088 40.292 41.7959V42.2539H32.7852V41.7959C32.7853 41.088 33.1392 40.5343 33.8242 40.1387C34.5045 39.746 35.4117 39.5538 36.5381 39.5537ZM46.2148 37.6309V39.3311H41.4766V37.6309H46.2148ZM36.5381 34.7461C37.0502 34.7461 37.4893 34.9268 37.8486 35.2861C38.208 35.6454 38.3887 36.0845 38.3887 36.5967C38.3886 37.1085 38.2079 37.5471 37.8486 37.9062C37.4894 38.2657 37.0502 38.4463 36.5381 38.4463C36.0262 38.4462 35.5878 38.2655 35.2285 37.9062C34.8693 37.5471 34.6886 37.1086 34.6885 36.5967C34.6885 36.0844 34.8692 35.6454 35.2285 35.2861C35.5879 34.927 36.0262 34.7462 36.5381 34.7461ZM46.2148 34.7461V36.4463H41.4766V34.7461H46.2148Z" fill="#1447B2" stroke="#1447B2" stroke-width="0.2"/>
<path d="M27.6013 44.4349H11V39.8053C11 38.7856 11.2738 37.8413 11.8215 36.9722C12.3691 36.1032 13.101 35.4351 14.0172 34.9679C16.052 33.959 18.1048 33.2023 20.1757 32.6976C22.2465 32.193 24.335 31.9407 26.4412 31.9407V35.0642C24.5642 35.0642 22.7039 35.2917 20.8602 35.7467C19.0169 36.2021 17.2082 36.8716 15.4342 37.7552C15.02 37.9822 14.6922 38.2751 14.4506 38.6339C14.209 38.9932 14.0882 39.3836 14.0882 39.8053V41.3114H26.6589C26.7557 41.858 26.8825 42.3916 27.0393 42.9122C27.1964 43.4328 27.3838 43.9404 27.6013 44.4349ZM21.3476 26.4401C19.9394 25.0161 19.2353 23.2988 19.2353 21.2883C19.2353 19.2781 19.9394 17.5609 21.3476 16.1365C22.7559 14.7122 24.4537 14 26.4412 14C28.4286 14 30.1265 14.7122 31.5347 16.1365C32.9429 17.5609 33.6471 19.2781 33.6471 21.2883C33.6471 23.2988 32.9429 25.0161 31.5347 26.4401C30.1265 27.8644 28.4286 28.5766 26.4412 28.5766C24.4537 28.5766 22.7559 27.8644 21.3476 26.4401ZM29.3493 24.2297C30.1556 23.4141 30.5588 22.4336 30.5588 21.2883C30.5588 20.143 30.1556 19.1625 29.3493 18.347C28.5429 17.5314 27.5735 17.1236 26.4412 17.1236C25.3088 17.1236 24.3395 17.5314 23.5331 18.347C22.7267 19.1625 22.3235 20.143 22.3235 21.2883C22.3235 22.4336 22.7267 23.4141 23.5331 24.2297C24.3395 25.0453 25.3088 25.4531 26.4412 25.4531C27.5735 25.4531 28.5429 25.0453 29.3493 24.2297Z" fill="#1447B2"/>
</g>
</svg>
