<svg xmlns="http://www.w3.org/2000/svg" width="42.748" height="33.748" viewBox="0 0 42.748 33.748">
  <path id="tv_options_input_settings_24dp_FILL0_wght300_GRAD0_opsz24" d="M104.067-746.252a3.919,3.919,0,0,1-2.875-1.192A3.919,3.919,0,0,1,100-750.319v-25.614a3.92,3.92,0,0,1,1.192-2.875A3.92,3.92,0,0,1,104.067-780h34.614a3.92,3.92,0,0,1,2.875,1.192,3.92,3.92,0,0,1,1.192,2.875v25.614a3.919,3.919,0,0,1-1.192,2.875,3.919,3.919,0,0,1-2.875,1.192Zm0-3.375h34.614a.674.674,0,0,0,.5-.195.674.674,0,0,0,.195-.5v-25.614a.674.674,0,0,0-.195-.5.674.674,0,0,0-.5-.195H104.067a.674.674,0,0,0-.5.195.674.674,0,0,0-.195.5v25.614a.674.674,0,0,0,.195.5A.674.674,0,0,0,104.067-749.626Zm15.619-3.5h3.375l.458-2.682a9.388,9.388,0,0,0,1.633-.655,6.408,6.408,0,0,0,1.447-1.041l2.592.9,1.731-2.851-2.09-1.817a7.947,7.947,0,0,0,.221-1.852,7.947,7.947,0,0,0-.221-1.852l2.09-1.817-1.731-2.851-2.592.9a6.4,6.4,0,0,0-1.447-1.041,9.389,9.389,0,0,0-1.633-.655l-.458-2.682h-3.375l-.458,2.682a9.388,9.388,0,0,0-1.633.655,6.4,6.4,0,0,0-1.447,1.041l-2.592-.9-1.731,2.851,2.09,1.817a7.948,7.948,0,0,0-.221,1.852,7.948,7.948,0,0,0,.221,1.852l-2.09,1.817,1.731,2.851,2.592-.9a6.407,6.407,0,0,0,1.447,1.041,9.388,9.388,0,0,0,1.633.655Zm1.687-5.322a4.5,4.5,0,0,1-3.308-1.365,4.5,4.5,0,0,1-1.365-3.308,4.505,4.505,0,0,1,1.365-3.308,4.505,4.505,0,0,1,3.308-1.365,4.505,4.505,0,0,1,3.308,1.365,4.505,4.505,0,0,1,1.365,3.308,4.5,4.5,0,0,1-1.365,3.308A4.5,4.5,0,0,1,121.374-758.453Zm-18,8.826v0Z" transform="translate(-100 780)" fill="#1447b2"/>
</svg>
