<svg width="13" height="12" viewBox="0 0 13 12" fill="none" xmlns="http://www.w3.org/2000/svg">
<path d="M6.8062 9L6.8062 3H5.85884L5.85884 9H6.8062ZM12.3325 5.99889C12.3325 6.82879 12.175 7.60884 11.8601 8.33905C11.5452 9.06926 11.1177 9.70442 10.5778 10.2445C10.0379 10.7846 9.40305 11.2123 8.67315 11.5274C7.94326 11.8425 7.16341 12 6.33362 12C5.50373 12 4.72368 11.8425 3.99347 11.5276C3.26326 11.2126 2.6281 10.7852 2.08799 10.2453C1.54789 9.70542 1.12026 9.07053 0.805098 8.34063C0.490046 7.61074 0.33252 6.83089 0.33252 6.00111C0.33252 5.17121 0.489993 4.39116 0.80494 3.66095C1.11989 2.93074 1.54731 2.29558 2.0872 1.75547C2.6271 1.21537 3.26199 0.787737 3.99189 0.472579C4.72178 0.157526 5.50162 0 6.33141 0C7.16131 0 7.94136 0.157473 8.67157 0.472421C9.40178 0.787368 10.0369 1.21479 10.577 1.75468C11.1172 2.29458 11.5448 2.92947 11.8599 3.65937C12.175 4.38926 12.3325 5.16911 12.3325 5.99889ZM11.3852 6C11.3852 4.58947 10.8957 3.39474 9.91673 2.41579C8.93778 1.43684 7.74305 0.947369 6.33252 0.947369C4.92199 0.947369 3.72726 1.43684 2.74831 2.41579C1.76936 3.39474 1.27989 4.58947 1.27989 6C1.27989 7.41053 1.76936 8.60526 2.74831 9.58421C3.72726 10.5632 4.92199 11.0526 6.33252 11.0526C7.74305 11.0526 8.93778 10.5632 9.91673 9.58421C10.8957 8.60526 11.3852 7.41053 11.3852 6Z" 
fill="#A5A5A5"/>
</svg>
