<svg width="150" height="150" viewBox="0 0 150 150" fill="none" xmlns="http://www.w3.org/2000/svg">
<path d="M74.9891 135.577C71.8797 135.577 69.2214 134.47 67.0141 132.258C64.8057 130.045 63.7016 127.385 63.7016 124.278H86.2984C86.2984 127.396 85.1911 130.058 82.9766 132.266C80.762 134.473 78.0995 135.577 74.9891 135.577ZM28.125 118.028V108.655H39.4234V62.0187C39.4234 53.6135 42.0177 46.1818 47.2062 39.7234C52.3937 33.2651 59.0542 29.1344 67.1875 27.3312V23.4375C67.1875 21.2677 67.9464 19.4229 69.4641 17.9031C70.9818 16.3844 72.8245 15.625 74.9922 15.625C77.1609 15.625 79.0063 16.3844 80.5281 17.9031C82.051 19.4229 82.8125 21.2677 82.8125 23.4375V24.6875C81.7865 26.5385 80.9729 28.4214 80.3719 30.3359C79.7708 32.2516 79.4026 34.2391 79.2672 36.2984C78.5557 36.1703 77.862 36.0578 77.1859 35.9609C76.5109 35.8651 75.7823 35.8172 75 35.8172C67.7646 35.8172 61.5885 38.3755 56.4719 43.4922C51.3563 48.6078 48.7984 54.7833 48.7984 62.0187V108.655H101.202V69.5797C102.636 70.0922 104.151 70.4927 105.745 70.7812C107.34 71.0698 108.951 71.1943 110.577 71.1547V108.655H121.875V118.028H28.125ZM109.261 57.5125C104.489 57.5125 100.431 55.8422 97.0859 52.5016C93.7401 49.1609 92.0672 45.1042 92.0672 40.3312C92.0672 35.5594 93.7375 31.5005 97.0781 28.1547C100.419 24.8099 104.475 23.1375 109.247 23.1375C114.02 23.1375 118.079 24.8078 121.423 28.1484C124.769 31.4891 126.442 35.5453 126.442 40.3172C126.442 45.0901 124.772 49.149 121.431 52.4938C118.091 55.8396 114.034 57.5125 109.261 57.5125Z" fill="#EDEDED"/>
<path d="M109.261 57.5127C104.489 57.5127 100.431 55.8424 97.086 52.5018C93.7401 49.1611 92.0672 45.1044 92.0672 40.3314C92.0672 35.5596 93.7375 31.5007 97.0781 28.1549C100.419 24.8101 104.475 23.1377 109.247 23.1377C114.02 23.1377 118.079 24.808 121.423 28.1486C124.769 31.4893 126.442 35.5455 126.442 40.3174C126.442 45.0903 124.772 49.1492 121.431 52.4939C118.091 55.8398 114.034 57.5127 109.261 57.5127Z" fill="#EDEDED"/>
<path d="M108.999 47.277C107.83 47.277 106.826 46.9811 105.988 46.3892C105.154 45.7926 104.513 44.9332 104.063 43.8111C103.618 42.6842 103.395 41.3277 103.395 39.7415C103.4 38.1553 103.625 36.8059 104.07 35.6932C104.52 34.5758 105.162 33.7235 105.995 33.1364C106.833 32.5492 107.834 32.2557 108.999 32.2557C110.164 32.2557 111.165 32.5492 112.003 33.1364C112.841 33.7235 113.483 34.5758 113.928 35.6932C114.378 36.8106 114.603 38.16 114.603 39.7415C114.603 41.3324 114.378 42.6913 113.928 43.8182C113.483 44.9403 112.841 45.7973 112.003 46.3892C111.17 46.9811 110.169 47.277 108.999 47.277ZM108.999 45.054C109.908 45.054 110.626 44.6065 111.151 43.7116C111.681 42.812 111.947 41.4886 111.947 39.7415C111.947 38.5862 111.826 37.6155 111.584 36.8295C111.343 36.0436 111.002 35.4517 110.562 35.054C110.121 34.6515 109.6 34.4503 108.999 34.4503C108.095 34.4503 107.38 34.9001 106.854 35.7997C106.329 36.6946 106.064 38.0085 106.059 39.7415C106.054 40.9015 106.17 41.8769 106.407 42.6676C106.648 43.4583 106.989 44.0549 107.43 44.4574C107.87 44.8551 108.393 45.054 108.999 45.054Z" fill="#DEDEDE"/>
</svg>
