<svg xmlns="http://www.w3.org/2000/svg" width="44.832" height="44.832" viewBox="0 0 44.832 44.832">
  <path id="memory_24dp_5F6368_FILL0_wght300_GRAD0_opsz24" 
  d="M164.869-781.577v-13.554h13.554v13.554Zm4.066-4.066h5.422v-5.422h-5.422Zm-4.744,19.705v-4.8h-5.265a4.73,4.73,0,0,1-3.477-1.423,4.73,4.73,0,0,1-1.423-3.477V-780.9h-4.8v-4.066h4.8v-6.777h-4.8v-4.066h4.8v-5.265a4.73,4.73,0,0,1,1.423-3.477,4.73,4.73,0,0,1,3.477-1.423h5.265v-4.8h4.066v4.8h6.777v-4.8H179.1v4.8h5.265a4.73,4.73,0,0,1,3.477,1.423,4.73,4.73,0,0,1,1.423,3.477v5.265h4.8v4.066h-4.8v6.777h4.8v4.066h-4.8v5.265a4.73,4.73,0,0,1-1.423,3.477,4.73,4.73,0,0,1-3.477,1.423H179.1v4.8h-4.066v-4.8h-6.777v4.8Zm20.174-8.862a.8.8,0,0,0,.573-.261.8.8,0,0,0,.261-.573v-25.439a.8.8,0,0,0-.261-.573.8.8,0,0,0-.573-.261H158.926a.8.8,0,0,0-.573.261.8.8,0,0,0-.261.573v25.439a.8.8,0,0,0,.261.573.8.8,0,0,0,.573.261ZM171.646-788.354Z" 
  transform="translate(-149.23 810.77)" fill="#1447b2"/>
</svg>
