<svg width="12" height="12" viewBox="0 0 12 12" fill="none" xmlns="http://www.w3.org/2000/svg">
<path d="M1.2396 12C0.902 12 0.611029 11.8778 0.366686 11.6333C0.122229 11.389 0 11.098 0 10.7604V1.2396C0 0.902 0.122229 0.611029 0.366686 0.366686C0.611029 0.122229 0.902 0 1.2396 0H6L9.94286 3.94286V6.05674H8.91429V4.45714H5.48571V1.02857H1.2396C1.1868 1.02857 1.13846 1.05057 1.09457 1.09457C1.05057 1.13846 1.02857 1.1868 1.02857 1.2396V10.7604C1.02857 10.8132 1.05057 10.8615 1.09457 10.9054C1.13846 10.9494 1.1868 10.9714 1.2396 10.9714H5.35389V12H1.2396Z" 
fill="#5F6368"/>
<path d="M9.5 10.6689C9.83603 10.6689 10.1244 10.5542 10.3652 10.3248C10.6059 10.0953 10.7262 9.82041 10.7262 9.5C10.7262 9.17969 10.6059 8.90481 10.3652 8.67539C10.1244 8.44587 9.83603 8.33111 9.5 8.33111C9.16397 8.33111 8.87561 8.44587 8.63493 8.67539C8.39415 8.90481 8.27376 9.17969 8.27376 9.5C8.27376 9.82041 8.39415 10.0953 8.63493 10.3248C8.87561 10.5542 9.16397 10.6689 9.5 10.6689ZM9.05721 12L8.93692 11.329C8.7658 11.2821 8.61821 11.2266 8.49413 11.1624C8.36995 11.0982 8.24808 11.0123 8.12853 10.9048L7.45416 11.1256L7 10.4177L7.54271 9.97414C7.5003 9.81825 7.4791 9.6602 7.4791 9.5C7.4791 9.3398 7.5003 9.1818 7.54271 9.026L7 8.58225L7.45416 7.87456L8.12853 8.09531C8.24808 7.98416 8.36995 7.8974 8.49413 7.83502C8.61821 7.77255 8.7658 7.71787 8.93692 7.67097L9.05721 7H9.94279L10.0631 7.67097C10.2342 7.71787 10.3818 7.77255 10.5059 7.83502C10.6301 7.8974 10.7519 7.98416 10.8715 8.09531L11.5458 7.87456L12 8.58225L11.4573 9.026C11.4997 9.1818 11.5209 9.3398 11.5209 9.5C11.5209 9.6602 11.4997 9.81825 11.4573 9.97414L12 10.4177L11.5458 11.1256L10.8715 10.9048C10.7519 11.0123 10.6301 11.0982 10.5059 11.1624C10.3818 11.2266 10.2342 11.2821 10.0631 11.329L9.94279 12H9.05721Z" 
fill="#5F6368"/>
</svg>
