<svg width="52" height="58" viewBox="0 0 52 52" fill="none" xmlns="http://www.w3.org/2000/svg">
<g id="Icon">
<rect width="52" height="52" fill="white"/>
<path id="Vector" d="M5 40.5468V36.8705C5 35.8339 5.26835 34.9427 5.80505 34.1969C6.34175 33.4514 7.06306 32.8555 7.96898 32.4092C9.90623 31.4869 11.8295 30.7517 13.7389 30.2034C15.6486 29.6552 17.9463 29.3811 20.6321 29.3811C23.3174 29.3811 25.615 29.6552 27.5247 30.2034C29.4344 30.7517 31.3577 31.4869 33.2946 32.4092C34.2005 32.8555 34.9218 33.4514 35.4585 34.1969C35.9956 34.9427 36.2641 35.8339 36.2641 36.8705V40.5468H5ZM40.7304 40.5468V36.7672C40.7304 35.4731 40.4684 34.2516 39.9444 33.1026C39.4207 31.9537 38.6778 30.9679 37.7157 30.1454C38.8121 30.3687 39.8686 30.6785 40.8851 31.0749C41.9012 31.4717 42.9061 31.9176 43.8998 32.4126C44.8675 32.8994 45.6262 33.5223 46.176 34.2812C46.7253 35.0404 47 35.8691 47 36.7672V40.5468H40.7304ZM20.6321 24.3989C18.7897 24.3989 17.2125 23.7429 15.9006 22.4309C14.5886 21.119 13.9326 19.5418 13.9326 17.6995C13.9326 15.8571 14.5886 14.2799 15.9006 12.968C17.2125 11.656 18.7897 11 20.6321 11C22.4744 11 24.0516 11.656 25.3636 12.968C26.6755 14.2799 27.3315 15.8571 27.3315 17.6995C27.3315 19.5418 26.6755 21.119 25.3636 22.4309C24.0516 23.7429 22.4744 24.3989 20.6321 24.3989ZM36.8654 17.6995C36.8654 19.5418 36.2094 21.119 34.8974 22.4309C33.5855 23.7429 32.0083 24.3989 30.1659 24.3989C30.0714 24.3989 29.951 24.3883 29.8047 24.3671C29.6588 24.3455 29.5386 24.3219 29.4441 24.2962C30.2007 23.3694 30.7821 22.3414 31.1882 21.2122C31.5946 20.083 31.7978 18.9104 31.7978 17.6944C31.7978 16.4785 31.5851 15.3165 31.1597 14.2085C30.7347 13.1005 30.1628 12.0654 29.4441 11.1033C29.5643 11.0605 29.6845 11.0326 29.8047 11.0195C29.925 11.0065 30.0454 11 30.1659 11C32.0083 11 33.5855 11.656 34.8974 12.968C36.2094 14.2799 36.8654 15.8571 36.8654 17.6995ZM7.23315 38.3137H34.031V36.8705C34.031 36.3465 33.9 35.8883 33.6379 35.496C33.3759 35.1041 32.9056 34.7291 32.2271 34.371C30.5608 33.4808 28.8043 32.7987 26.9575 32.3249C25.111 31.8511 23.0026 31.6142 20.6321 31.6142C18.2612 31.6142 16.1525 31.8511 14.3061 32.3249C12.4593 32.7987 10.7027 33.4808 9.03642 34.371C8.35792 34.7291 7.88765 35.1041 7.62563 35.496C7.36398 35.8883 7.23315 36.3465 7.23315 36.8705V38.3137ZM20.6321 22.1658C21.8603 22.1658 22.9117 21.7284 23.7864 20.8538C24.661 19.9791 25.0984 18.9277 25.0984 17.6995C25.0984 16.4712 24.661 15.4198 23.7864 14.5451C22.9117 13.6705 21.8603 13.2332 20.6321 13.2332C19.4038 13.2332 18.3524 13.6705 17.4777 14.5451C16.6031 15.4198 16.1658 16.4712 16.1658 17.6995C16.1658 18.9277 16.6031 19.9791 17.4777 20.8538C18.3524 21.7284 19.4038 22.1658 20.6321 22.1658Z" fill="#1447B2"/>
</g>
</svg>
