<svg
  xmlns="http://www.w3.org/2000/svg"
  width="42.784" height="47.184" viewBox="0 0 16.277 20.784">
  <path id="upload_file_FILL0_wght200_GRAD0_opsz24"
	d="M207.325-823.356h1.127v-5.29l2.367,2.367.8-.8-3.727-3.727-3.727,3.727.8.8,2.36-2.36Zm-5.5,3.641a1.763,1.763,0,0,1-1.3-.521,1.763,1.763,0,0,1-.521-1.3V-838.18a1.763,1.763,0,0,1,.521-1.3,1.763,1.763,0,0,1,1.3-.521h8.885l5.071,5.071v13.393a1.763,1.763,0,0,1-.521,1.3,1.763,1.763,0,0,1-1.3.521Zm8.322-14.65v-4.508H201.82a.663.663,0,0,0-.477.217.663.663,0,0,0-.217.477v16.644a.663.663,0,0,0,.217.477.663.663,0,0,0,.477.217h12.136a.663.663,0,0,0,.477-.217.663.663,0,0,0,.217-.477v-12.829Zm-9.015-4.508v0Z"
	transform="translate(-199.75 840.25)" fill="#1447b2" strokeWidth="0.5" />
</svg>