<svg
  xmlns="http://www.w3.org/2000/svg"
  width="40.618" height="40.618" viewBox="0 0 18.426 20.552">
  <path id="admin_panel_settings_24dp_FILL0_wght300_GRAD0_opsz24"
	d="M193.548-842.786a1.568,1.568,0,0,0,1.152-.474,1.568,1.568,0,0,0,.474-1.152,1.568,1.568,0,0,0-.474-1.152,1.568,1.568,0,0,0-1.152-.474,1.568,1.568,0,0,0-1.152.474,1.568,1.568,0,0,0-.474,1.152,1.568,1.568,0,0,0,.474,1.152A1.568,1.568,0,0,0,193.548-842.786Zm0,3.252a3.141,3.141,0,0,0,1.55-.388,3.3,3.3,0,0,0,1.143-1.038,5.25,5.25,0,0,0-1.284-.552,5.2,5.2,0,0,0-1.409-.19,5.2,5.2,0,0,0-1.409.19,5.25,5.25,0,0,0-1.284.552A3.3,3.3,0,0,0,192-839.922,3.141,3.141,0,0,0,193.548-839.534Zm-5.419,1.6a10.469,10.469,0,0,1-5.823-4.14A11.826,11.826,0,0,1,180-849.18v-6.236l8.129-3.043,8.129,3.043v6.14q-.379-.154-.8-.278a7.206,7.206,0,0,0-.829-.195v-4.535l-6.5-2.428-6.5,2.428v5.1a9.856,9.856,0,0,0,.406,2.813,11.129,11.129,0,0,0,1.12,2.566,10.19,10.19,0,0,0,1.706,2.143,8.5,8.5,0,0,0,2.153,1.516l.031-.01a5.948,5.948,0,0,0,.556,1.142,5.89,5.89,0,0,0,.777.992,1.122,1.122,0,0,0-.124.045A1.17,1.17,0,0,1,188.129-837.929Zm5.419.021a4.7,4.7,0,0,1-3.454-1.424,4.7,4.7,0,0,1-1.424-3.454,4.7,4.7,0,0,1,1.424-3.454,4.7,4.7,0,0,1,3.454-1.424A4.7,4.7,0,0,1,197-846.239a4.7,4.7,0,0,1,1.424,3.454A4.7,4.7,0,0,1,197-839.332,4.7,4.7,0,0,1,193.548-837.908ZM188.129-848.428Z"
	transform="translate(-180 858.46)" fill="#1447b2" />
</svg>