<svg width="13" height="12" viewBox="0 0 13 12" fill="none" xmlns="http://www.w3.org/2000/svg">
<path d="M5.42714 12C4.66332 11.9196 3.95226 11.7111 3.29397 11.3744C2.63568 11.0377 2.06281 10.6005 1.57538 10.0628C1.08794 9.52513 0.703518 8.90955 0.422111 8.21608C0.140704 7.52261 0 6.78392 0 6C0 5.08543 0.183417 4.24121 0.550251 3.46734C0.917085 2.69347 1.41709 2.03015 2.05025 1.47739H0.603015V0.271357H4.22111V3.88945H3.01508V2.24623C2.46231 2.68844 2.02261 3.23367 1.69598 3.88191C1.36935 4.53015 1.20603 5.23618 1.20603 6C1.20603 7.23618 1.61055 8.30402 2.4196 9.20352C3.22864 10.103 4.23116 10.6281 5.42714 10.7789V12ZM5.17085 8.77387L2.62312 6.21106L3.46734 5.36683L5.17085 7.07035L8.59297 3.64824L9.43719 4.50754L5.17085 8.77387ZM7.8392 11.7286V8.11055H9.04523V9.75377C9.59799 9.30151 10.0377 8.75377 10.3643 8.11055C10.691 7.46734 10.8543 6.76382 10.8543 6C10.8543 4.76382 10.4497 3.69598 9.6407 2.79648C8.83166 1.89698 7.82915 1.37186 6.63317 1.22111V0C8.1608 0.150754 9.44724 0.79397 10.4925 1.92965C11.5377 3.06533 12.0603 4.42211 12.0603 6C12.0603 6.91457 11.8769 7.75879 11.5101 8.53266C11.1432 9.30653 10.6432 9.96985 10.0101 10.5226H11.4573V11.7286H7.8392Z" fill="#5F6368"/>
</svg>
