<svg width="20" height="19" viewBox="0 0 20 19" fill="none" xmlns="http://www.w3.org/2000/svg">
<path d="M17.9347 19.0004L12.6738 13.7395C12.0988 14.2378 11.428 14.6259 10.6614 14.9038C9.89478 15.1817 9.08025 15.3206 8.21781 15.3206C6.14794 15.3206 4.3943 14.6019 2.95689 13.1645C1.51949 11.7271 0.800781 9.99263 0.800781 7.96109C0.800781 5.92956 1.51949 4.19508 2.95689 2.75767C4.3943 1.32027 6.13836 0.601562 8.18906 0.601562C10.2206 0.601562 11.9503 1.32027 13.3781 2.75767C14.8059 4.19508 15.5198 5.92956 15.5198 7.96109C15.5198 8.78521 15.3857 9.58057 15.1174 10.3472C14.8491 11.1138 14.4466 11.8325 13.9099 12.5033L19.1996 17.7355L17.9347 19.0004ZM8.18906 13.5957C9.74146 13.5957 11.0639 13.0447 12.1563 11.9427C13.2487 10.8407 13.795 9.51349 13.795 7.96109C13.795 6.40869 13.2487 5.08148 12.1563 3.97947C11.0639 2.87746 9.74146 2.32645 8.18906 2.32645C6.61749 2.32645 5.2807 2.87746 4.17869 3.97947C3.07668 5.08148 2.52567 6.40869 2.52567 7.96109C2.52567 9.51349 3.07668 10.8407 4.17869 11.9427C5.2807 13.0447 6.61749 13.5957 8.18906 13.5957Z" fill="#4D4C4C"/>
</svg>
