<svg width="14" height="10" viewBox="0 0 14 10" fill="none" xmlns="http://www.w3.org/2000/svg">
<path d="M0.000163741 1.20517C0.000163756 0.868388 0.113137 0.583333 0.339085 0.349999C0.565033 0.116666 0.841066 -5.46061e-07 1.16718 -5.31806e-07L7.87105 -2.38771e-07C8.19717 -2.24516e-07 8.4732 0.116666 8.69915 0.35C8.9251 0.583333 9.03807 0.868389 9.03807 1.20517L9.03807 2.91017L8.06972 2.91017L8.06972 1.20517C8.06972 1.15383 8.04901 1.10683 8.00759 1.06417C7.96627 1.02139 7.92076 1 7.87105 1L1.16718 0.999999C1.11748 0.999999 1.07196 1.02139 1.03065 1.06417C0.989223 1.10683 0.968511 1.15383 0.968511 1.20517L0.96851 8.79483C0.96851 8.84617 0.989223 8.89317 1.03065 8.93583C1.07196 8.97861 1.11747 9 1.16718 9L7.87105 9C7.92076 9 7.96627 8.97861 8.00759 8.93583C8.04901 8.89317 8.06972 8.84617 8.06972 8.79483L8.06972 7.08983L9.03807 7.08983L9.03807 8.79483C9.03807 9.13161 8.9251 9.41667 8.69915 9.65C8.4732 9.88333 8.19717 10 7.87105 10L1.16718 10C0.841066 10 0.565032 9.88333 0.339085 9.65C0.113137 9.41667 0.000163395 9.13161 0.00016341 8.79483L0.000163741 1.20517ZM4.35773 4.5L11.4788 4.5L10.2845 3.26667L10.9748 2.56417L13.3335 5L10.9748 7.43583L10.2845 6.73333L11.4788 5.5L4.35773 5.5L4.35773 4.5Z" 
fill="#5F6368"/>
</svg>
